<?xml version="1.0" encoding="UTF-8" standalone="no"?>
<!-- Created with Inkscape (http://www.inkscape.org/) -->

<svg
   width="5in"
   height="5in"
   viewBox="0 0 5 5"
   version="1.1"
   id="svg1"
   inkscape:version="1.4.3 (0d15f75, 2025-12-25)"
   sodipodi:docname="restart icon.svg"
   xml:space="preserve"
   xmlns:inkscape="http://www.inkscape.org/namespaces/inkscape"
   xmlns:sodipodi="http://sodipodi.sourceforge.net/DTD/sodipodi-0.dtd"
   xmlns="http://www.w3.org/2000/svg"
   xmlns:svg="http://www.w3.org/2000/svg"
   xmlns:rdf="http://www.w3.org/1999/02/22-rdf-syntax-ns#"
   xmlns:cc="http://creativecommons.org/ns#"><sodipodi:namedview
     id="namedview1"
     pagecolor="#505050"
     bordercolor="#ffffff"
     borderopacity="1"
     inkscape:showpageshadow="0"
     inkscape:pageopacity="0"
     inkscape:pagecheckerboard="1"
     inkscape:deskcolor="#505050"
     inkscape:document-units="mm"
     inkscape:zoom="0.35355339"
     inkscape:cx="190.91883"
     inkscape:cy="183.84776"
     inkscape:window-width="1920"
     inkscape:window-height="1009"
     inkscape:window-x="2552"
     inkscape:window-y="-8"
     inkscape:window-maximized="1"
     inkscape:current-layer="layer7" /><defs
     id="defs1"><inkscape:path-effect
       effect="fillet_chamfer"
       id="path-effect9"
       is_visible="true"
       lpeversion="1"
       nodesatellites_param="F,0,0,1,0,0,0,1 @ F,0,0,1,0,0,0,1 @ F,0,0,1,0,0,0,1 @ F,0,0,1,0,0,0,1 @ F,0,0,1,0,0,0,1"
       radius="0"
       unit="px"
       method="auto"
       mode="F"
       chamfer_steps="1"
       flexible="false"
       use_knot_distance="true"
       apply_no_radius="true"
       apply_with_radius="true"
       only_selected="false"
       hide_knots="false" /><inkscape:path-effect
       effect="fillet_chamfer"
       id="path-effect9-2"
       is_visible="true"
       lpeversion="1"
       nodesatellites_param="F,0,0,1,0,0,0,1 @ F,0,0,1,0,0,0,1 @ F,0,0,1,0,0,0,1 @ F,0,0,1,0,0,0,1 @ F,0,0,1,0,0,0,1"
       radius="0"
       unit="px"
       method="auto"
       mode="F"
       chamfer_steps="1"
       flexible="false"
       use_knot_distance="true"
       apply_no_radius="true"
       apply_with_radius="true"
       only_selected="false"
       hide_knots="false" /></defs><g
     inkscape:label="triangle"
     inkscape:groupmode="layer"
     id="layer1"
     style="display:inline"
     transform="translate(-5.5416666,-0.04166667)"><path
       style="display:inline;fill:#53d76a;fill-opacity:1;stroke-width:0.254867;stroke-linecap:round;stroke-linejoin:round;paint-order:stroke fill markers"
       d="M 17.594987,0.61433897 V 4.8489513 c 0,0 3.072002,-2.1369104 3.074697,-2.2369799 0.002,-0.095568 -3.074697,-1.99763243 -3.074697,-1.99763243 z"
       id="path4-1"
       sodipodi:nodetypes="cccc"
       inkscape:label="fill" /><path
       style="display:inline;fill:none;fill-opacity:1;stroke:#54be31;stroke-width:0.247926;stroke-linecap:round;stroke-linejoin:round;stroke-dasharray:none;stroke-opacity:1;paint-order:markers fill stroke"
       d="M 17.699912,0.84945206 V 4.613838 c 0,0 2.862335,-1.8996203 2.864846,-1.9885777 0.0018,-0.084956 -2.864846,-1.77580824 -2.864846,-1.77580824 z"
       id="path4"
       sodipodi:nodetypes="cccc"
       inkscape:label="stroke-inner" /><path
       style="fill:#54be31;fill-opacity:1;stroke:#54be31;stroke-width:0.254867;stroke-linecap:round;stroke-linejoin:round;stroke-dasharray:none;stroke-dashoffset:0;stroke-opacity:1;paint-order:stroke fill markers"
       d="m 20.338282,2.5889582 c -1.431484,1.0494475 -2.545371,0.492504 -2.545371,0.492504 l -0.0046,1.3532331 z"
       id="path5-2"
       sodipodi:nodetypes="cccc"
       inkscape:label="shadow-inner" /><path
       style="fill:#45952b;fill-opacity:1;stroke:#54be31;stroke-width:0.254867;stroke-linecap:round;stroke-linejoin:round;stroke-dasharray:none;stroke-dashoffset:0;stroke-opacity:1;paint-order:stroke fill markers"
       d="M 20.20817,2.9173349 C 18.776687,3.9667824 17.693779,4.0727881 17.693779,4.0727881 L 17.658189,4.763072 Z"
       id="path5"
       sodipodi:nodetypes="cccc"
       inkscape:label="shadow-inner-darker" /><path
       style="display:inline;fill:none;fill-opacity:1;stroke:#000000;stroke-width:0.254867;stroke-linecap:round;stroke-linejoin:round;stroke-dasharray:none;stroke-opacity:1;paint-order:stroke fill markers"
       d="m 17.677839,0.669573 -0.08285,4.1793783 c 0,0 3.072001,-2.1369104 3.074697,-2.2369799 0.002,-0.095568 -2.991846,-1.9423984 -2.991846,-1.9423984 z"
       id="path4-2"
       sodipodi:nodetypes="cccc"
       inkscape:label="stroke" /><path
       style="fill:#a7d697;fill-opacity:0.650485;stroke:none;stroke-width:0.263825;stroke-linecap:round;stroke-linejoin:round;stroke-dasharray:none;stroke-dashoffset:0;stroke-opacity:1;paint-order:stroke fill markers"
       d="M 18.154585,2.6987591 C 18.299191,2.5683317 18.476123,1.8974507 18.579738,1.8022839 18.83715,1.5658589 18.195194,1.4635982 18.039171,1.5802324 17.73896,1.8046537 17.92994,2.7983265 18.154585,2.6987591 Z"
       id="path6"
       sodipodi:nodetypes="csac"
       inkscape:label="highlight" /></g><g
     inkscape:groupmode="layer"
     id="layer3"
     inkscape:label="book"
     transform="translate(15.998291,0.26516504)"><g
       id="g13"
       inkscape:label="pages"
       transform="matrix(1.7813944,0,0,1.7813944,-27.310037,7.8128401)"><path
         style="display:inline;fill:#edf8f7;fill-opacity:1;stroke:none;stroke-width:0.171535;stroke-linecap:round;stroke-linejoin:round;stroke-dasharray:none;stroke-dashoffset:0;stroke-opacity:1;paint-order:stroke fill markers"
         d="m 1.9558489,1.1228581 c 0.2395834,-0.010417 0.7373629,-0.011049 0.7373629,-0.011049 0,0 0.29683,0.043038 0.3053511,0.3339653 0.010743,0.3667994 0.02578,1.1915983 0.02578,1.1915983 0,0 0.06797,0.4229855 -0.2653633,0.4750689 -0.3333334,0.052083 -0.838542,0.039063 -0.838542,0.039063"
         id="path11-4-3-8"
         sodipodi:nodetypes="ccscsc"
         inkscape:label="fill" /><path
         style="fill:#cbd5d4;fill-opacity:1;stroke:none;stroke-width:0.171535;stroke-linecap:round;stroke-linejoin:round;stroke-dasharray:none;stroke-dashoffset:0;stroke-opacity:1;paint-order:stroke fill markers"
         d="M 3.3219298,3.8522601 C 3.6987479,4.087794 3.6707873,3.3440269 3.8964543,3.3440269 c 0.025505,0 0.036828,0.1002269 0.036828,0.1252168 0,0.7263142 -0.9216163,1.1069642 -0.6113525,0.3830164 z"
         id="path14"
         transform="matrix(0.561358,0,0,0.561358,0.75878974,0.73659146)"
         inkscape:label="shadow" /><path
         style="display:inline;fill:none;fill-opacity:1;stroke:#000000;stroke-width:0.171535;stroke-linecap:round;stroke-linejoin:round;stroke-dasharray:none;stroke-dashoffset:0;stroke-opacity:1;paint-order:stroke fill markers"
         d="m 1.9558489,1.1228581 c 0.2395834,-0.010417 0.7373629,-0.011049 0.7373629,-0.011049 0,0 0.29683,0.043038 0.3053511,0.3339653 0.010743,0.3667994 0.02578,1.1915983 0.02578,1.1915983 0,0 0.06797,0.4229855 -0.2653633,0.4750689 -0.3333334,0.052083 -0.838542,0.039063 -0.838542,0.039063"
         id="path11-4-3"
         sodipodi:nodetypes="ccscsc"
         inkscape:label="stroke" /></g><g
       id="g12"
       inkscape:label="cover"
       transform="matrix(1.7813944,0,0,1.7813944,-27.310037,7.8128401)"><path
         style="display:inline;fill:#537dfa;fill-opacity:1;stroke:none;stroke-width:0.171535;stroke-linecap:round;stroke-linejoin:round;stroke-dasharray:none;stroke-dashoffset:0;stroke-opacity:1;paint-order:stroke fill markers"
         d="m 6.7187503,1.4687505 c 0.00684,-0.086967 0.061453,-0.2812501 0.3010364,-0.2916668 0.2395834,-0.010417 0.7790296,-0.011049 0.7790296,-0.011049 0,0 0.29683,0.043038 0.3053511,0.3339653 0.010743,0.3667994 0.02578,1.1915983 0.02578,1.1915983 0,0 0.06797,0.4229855 -0.2653633,0.4750689 -0.3333334,0.052083 -0.9375003,0 -0.9375003,0 0,0 -0.1979167,0.010417 -0.1979167,-0.1979168 0,-0.2083334 -0.01647,-1.4230631 -0.010417,-1.4999999 z m 0,0 c 0.00684,-0.086967 0.061453,-0.2812501 0.3010364,-0.2916668 0.2395834,-0.010417 0.7790296,-0.011049 0.7790296,-0.011049 0,0 0.29683,0.043038 0.3053511,0.3339653 0.010743,0.3667994 0.02578,1.1915983 0.02578,1.1915983 0,0 0.06797,0.4229855 -0.2653633,0.4750689 -0.3333334,0.052083 -0.9375003,0 -0.9375003,0 0,0 -0.1979167,0.010417 -0.1979167,-0.1979168 0,-0.2083334 -0.01647,-1.4230631 -0.010417,-1.4999999 z"
         id="path11"
         sodipodi:nodetypes="sscscscss"
         transform="translate(-5.5416666,-0.04166667)"
         inkscape:label="fill" /><path
         style="fill:#3061f0;fill-opacity:0.512136;stroke:none;stroke-width:0.171535;stroke-linecap:round;stroke-linejoin:round;stroke-dasharray:none;stroke-dashoffset:0;stroke-opacity:1;paint-order:stroke fill markers"
         d="m 1.2374373,2.4490945 c 0.048893,0.096705 0.1510367,0.3328185 0.2136818,0.4205216 0.068477,0.095867 0.4271765,0.058598 0.4976764,0.05133 C 2.7694731,2.8363349 2.2191568,1.434702 2.483504,1.3025284 2.6308387,1.2288614 2.6026535,2.840919 2.4896063,3.0104898 2.3793894,3.1758151 1.3748375,3.1043917 1.2794164,3.0522685 1.25613,3.0395485 1.1183308,2.704323 1.2374373,2.4490945 Z"
         id="path12"
         sodipodi:nodetypes="csssssc"
         inkscape:label="shadow" /><path
         style="display:inline;fill:none;fill-opacity:1;stroke:#000000;stroke-width:0.171535;stroke-linecap:round;stroke-linejoin:round;stroke-dasharray:none;stroke-dashoffset:0;stroke-opacity:1;paint-order:stroke fill markers"
         d="M 1.1770837,1.4270838 C 1.1839237,1.3401168 1.2385367,1.1458337 1.4781201,1.135417 1.7177035,1.125 2.2571497,1.124368 2.2571497,1.124368 c 0,0 0.29683,0.043038 0.3053511,0.3339653 0.010743,0.3667994 0.02578,1.1915983 0.02578,1.1915983 0,0 0.06797,0.4229855 -0.2653633,0.4750689 -0.3333334,0.052083 -0.9375003,0 -0.9375003,0 0,0 -0.1979167,0.010417 -0.1979167,-0.1979168 0,-0.2083334 -0.01647,-1.4230631 -0.010417,-1.4999999 z m 0,0 C 1.1839237,1.3401168 1.2385367,1.1458337 1.4781201,1.135417 1.7177035,1.125 2.2571497,1.124368 2.2571497,1.124368 c 0,0 0.29683,0.043038 0.3053511,0.3339653 0.010743,0.3667994 0.02578,1.1915983 0.02578,1.1915983 0,0 0.06797,0.4229855 -0.2653633,0.4750689 -0.3333334,0.052083 -0.9375003,0 -0.9375003,0 0,0 -0.1979167,0.010417 -0.1979167,-0.1979168 0,-0.2083334 -0.01647,-1.4230631 -0.010417,-1.4999999 z"
         id="path11-4"
         sodipodi:nodetypes="sscscscss"
         inkscape:label="stroke" /><path
         style="fill:#a7b8ec;fill-opacity:0.512136;stroke:none;stroke-width:0.171535;stroke-linecap:round;stroke-linejoin:round;stroke-dasharray:none;stroke-dashoffset:0;stroke-opacity:1;paint-order:stroke fill markers"
         d="m 1.5799422,1.6720134 c 0,0 0.036829,-0.2136052 -0.022097,-0.2504337 -0.058925,-0.036829 -0.1509967,0 -0.1804595,0.069974 -0.029463,0.069974 0.018414,0.4677218 0.084706,0.5303301 0.066291,0.062609 0.1178511,-0.3498706 0.1178505,-0.3498704 z"
         id="path13"
         inkscape:label="highlight" /></g></g><g
     inkscape:groupmode="layer"
     id="layer4"
     inkscape:label="down arrow"
     transform="translate(-11.554168,0.02946278)"><path
       style="fill:#ffd23d;fill-opacity:1;stroke:none;stroke-width:0.171535;stroke-linecap:round;stroke-linejoin:round;stroke-dasharray:none;stroke-dashoffset:0;stroke-opacity:1;paint-order:stroke fill markers"
       d="m 2.4705594,1.8473095 c 0,0 1.0736943,1.7817586 1.3904194,1.7817586 0.316725,0 1.5728163,-1.7607437 1.4968968,-1.7718654 C 4.3011101,1.7023933 3.5034721,1.7118657 2.4705594,1.8473095 Z"
       id="path15"
       sodipodi:nodetypes="cssc"
       inkscape:label="fill" /><path
       style="fill:#d99f05;fill-opacity:1;stroke:none;stroke-width:0.30933;stroke-linecap:round;stroke-linejoin:round;stroke-dasharray:none;stroke-dashoffset:0;stroke-opacity:1;paint-order:stroke fill markers"
       d="m 2.8994827,2.5165194 c 0,0 0.4687501,0.5104168 1.1250003,0.3541668 0.6562502,-0.1562501 1.0937504,-1.072917 1.0937504,-1.072917 l 0.1725519,0.061345 -0.03746,0.1267873 -0.7392585,1.1972852 c 0,0 -0.4687501,0.5000001 -0.5520835,0.4895835 C 3.8786497,3.6623531 3.7223996,3.7144365 3.3578162,3.2977697 2.9932327,2.8811029 2.8994827,2.5165194 2.8994827,2.5165194 Z"
       id="path16"
       inkscape:label="shadow-main"
       sodipodi:nodetypes="csccccssc" /><path
       style="fill:#ffe598;fill-opacity:1;stroke:none;stroke-width:0.210287;stroke-linecap:round;stroke-linejoin:round;stroke-dasharray:none;stroke-dashoffset:0;stroke-opacity:1;paint-order:stroke fill markers"
       d="M 3.09046,2.3042223 C 3.1536328,2.3270547 3.5768193,2.2153294 3.6959532,2.2834075 3.8011793,2.3435375 3.953984,2.0554991 3.554185,1.9711831 3.0664228,1.8683166 2.8359316,2.1991581 3.09046,2.3042223 Z"
       id="path17"
       sodipodi:nodetypes="cssc"
       inkscape:label="highlight" /><path
       style="fill:none;fill-opacity:1;stroke:#000000;stroke-width:0.179409;stroke-linecap:round;stroke-linejoin:round;stroke-dasharray:none;stroke-dashoffset:0;stroke-opacity:1;paint-order:stroke fill markers"
       d="m 2.4705594,1.8473095 c 0,0 1.0736943,1.7817586 1.3904194,1.7817586 0.316725,0 1.5728163,-1.7607437 1.4968968,-1.7718654 C 4.3011101,1.7023933 3.5034721,1.7118657 2.4705594,1.8473095 Z"
       id="path15-7"
       sodipodi:nodetypes="cssc"
       inkscape:label="stroke" /></g><g
     inkscape:groupmode="layer"
     id="layer4-8"
     inkscape:label="up arrow"
     transform="translate(-7.8809365,-0.97190929)"><path
       style="fill:#ffd23d;fill-opacity:1;stroke:none;stroke-width:0.171535;stroke-linecap:round;stroke-linejoin:round;stroke-dasharray:none;stroke-dashoffset:0;stroke-opacity:1;paint-order:stroke fill markers"
       d="m 6.1840286,4.2962141 c 0,0 -1.0736943,-1.7817586 -1.3904194,-1.7817586 -0.316725,0 -1.5728163,1.7607437 -1.4968968,1.7718654 1.0567655,0.1548094 1.8544035,0.145337 2.8873162,0.00989 z"
       id="path15-6"
       sodipodi:nodetypes="cssc"
       inkscape:label="fill" /><path
       style="fill:#d99f05;fill-opacity:1;stroke:none;stroke-width:0.30933;stroke-linecap:round;stroke-linejoin:round;stroke-dasharray:none;stroke-dashoffset:0;stroke-opacity:1;paint-order:stroke fill markers"
       d="m 5.6509386,3.5070513 c 0,0 -0.072917,0.6822918 -0.7291669,0.5260418 C 4.2655215,3.876843 3.4582296,4.0903845 3.4582296,4.0903845 L 3.312721,4.2681001 3.8228129,4.3143436 c 0,0 1.7806938,0.029979 1.8645835,0.026042 C 6.507916,4.3018796 6.0179498,4.0135375 5.6509386,3.5070513 Z"
       id="path16-5"
       inkscape:label="shadow-main"
       sodipodi:nodetypes="cscccsc" /><path
       style="fill:#ffe598;fill-opacity:1;stroke:none;stroke-width:0.210287;stroke-linecap:round;stroke-linejoin:round;stroke-dasharray:none;stroke-dashoffset:0;stroke-opacity:1;paint-order:stroke fill markers"
       d="M 4.7496502,2.9098251 C 4.5823107,3.204701 4.2245986,3.2709422 4.1809855,3.3799474 4.1359652,3.4924699 4.4008713,3.6757891 4.7131356,3.4122753 4.9578298,3.2057826 4.8036578,2.8352018 4.7496502,2.9098251 Z"
       id="path17-0"
       sodipodi:nodetypes="cssc"
       inkscape:label="highlight" /><path
       style="fill:none;fill-opacity:1;stroke:#000000;stroke-width:0.179409;stroke-linecap:round;stroke-linejoin:round;stroke-dasharray:none;stroke-dashoffset:0;stroke-opacity:1;paint-order:stroke fill markers"
       d="m 6.1840286,4.2962141 c 0,0 -1.0736943,-1.7817586 -1.3904194,-1.7817586 -0.316725,0 -1.5728163,1.7607437 -1.4968968,1.7718654 1.0567655,0.1548094 1.8544035,0.145337 2.8873162,0.00989 z"
       id="path15-7-9"
       sodipodi:nodetypes="cssc"
       inkscape:label="stroke" /></g><g
     id="g15"
     transform="translate(-15.634412,-0.0745223)"
     inkscape:label="coin"><g
       inkscape:label="circle"
       id="layer1-9"><path
         style="fill:#ffd23d;fill-opacity:1;stroke-width:0.329016;stroke-linecap:round;stroke-linejoin:round;stroke-dasharray:none;stroke-opacity:0.42;paint-order:markers stroke fill"
         id="path3"
         sodipodi:type="arc"
         sodipodi:cx="2.5"
         sodipodi:cy="2.5"
         sodipodi:rx="2.0985394"
         sodipodi:ry="2.0941584"
         sodipodi:start="0"
         sodipodi:end="6.2831122"
         sodipodi:arc-type="slice"
         d="M 4.5985394,2.5 A 2.0985394,2.0941584 0 0 1 2.5000384,4.5941584 2.0985394,2.0941584 0 0 1 0.40146065,2.5000765 2.0985394,2.0941584 0 0 1 2.4998849,0.40584159 2.0985394,2.0941584 0 0 1 4.5985393,2.4998469 L 2.5,2.5 Z"
         inkscape:label="fill" /></g><g
       id="layer2-8"
       inkscape:label="circle - highlights"><path
         style="fill:#ffe598;fill-opacity:1;stroke:none;stroke-width:0.336045;stroke-linecap:round;stroke-linejoin:round;stroke-dasharray:none;stroke-opacity:1;paint-order:markers stroke fill"
         d="m 4.4913953,1.8943148 c 0,0 -1.0381254,-1.18994553 -2.3585307,-0.8680259 C 0.63713775,1.3909526 0.5879265,3.4073814 0.5879265,3.4073814 0.3096885,3.1101017 0.01216618,0.70394286 2.2181472,0.39367815 4.0974639,0.12935795 4.4913953,1.8943148 4.4913953,1.8943148 Z"
         id="path2"
         sodipodi:nodetypes="cscsc"
         inkscape:label="main" /><path
         style="fill:#fee8b2;fill-opacity:0.55;stroke:none;stroke-width:0.171535;stroke-linecap:round;stroke-linejoin:round;stroke-dasharray:none;stroke-opacity:1;paint-order:stroke fill markers"
         d="M 3.7122373,2.0733789 C 3.7121758,1.8472327 3.4701715,1.4848411 3.1086877,1.3102892 2.747204,1.1357373 2.2662407,1.1490252 1.9121768,1.3148823 1.2900542,1.6063084 1.0770595,2.4092061 1.1660584,2.6671819 1.2168566,2.8144281 1.6363569,1.9597141 2.2602019,1.7744544 2.8840471,1.5891921 3.7122373,2.0733789 3.7122373,2.0733789 Z"
         id="path13-1"
         sodipodi:nodetypes="cssssc"
         inkscape:label="inner" /></g><g
       id="layer3-6"
       inkscape:label="circle - shadow"><path
         style="fill:#d99f05;fill-opacity:1;stroke:none;stroke-width:0.171535;stroke-linecap:round;stroke-linejoin:round;stroke-dasharray:none;stroke-opacity:1;paint-order:stroke fill markers"
         d="M 0.72725999,3.5311539 C 3.4856885,4.9700489 4.5578311,2.1396237 4.5578311,2.1396237 c 0,0 0.124701,1.8936988 -1.3737925,2.3437289 C 1.6556937,4.9423477 0.72725999,3.5311539 0.72725999,3.5311539 Z"
         id="path5-5"
         sodipodi:nodetypes="ccsc"
         inkscape:label="main" /><path
         style="display:none;fill:none;fill-opacity:1;stroke:#000000;stroke-width:0.171535;stroke-linecap:round;stroke-linejoin:round;stroke-dasharray:none;stroke-opacity:1;paint-order:stroke fill markers"
         id="path12-0"
         sodipodi:type="arc"
         sodipodi:cx="2.5092945"
         sodipodi:cy="2.5030987"
         sodipodi:rx="1.3506819"
         sodipodi:ry="1.3506819"
         sodipodi:start="0"
         sodipodi:end="6.2831122"
         sodipodi:arc-type="slice"
         d="M 3.8599764,2.5030987 A 1.3506819,1.3506819 0 0 1 2.5093192,3.8537806 1.3506819,1.3506819 0 0 1 1.1586126,2.5031481 1.3506819,1.3506819 0 0 1 2.5092205,1.1524168 1.3506819,1.3506819 0 0 1 3.8599764,2.503 l -1.3506819,9.87e-5 z" /><path
         style="fill:#d99f05;fill-opacity:0.554667;stroke:none;stroke-width:0.171535;stroke-linecap:round;stroke-linejoin:round;stroke-dasharray:none;stroke-opacity:1;paint-order:stroke fill markers"
         d="m 1.2639409,3.0297408 c 0,0.4522925 1.082365,1.0068623 1.790583,0.6753409 C 3.6767259,3.4138249 3.89921,2.6946308 3.8102812,2.4366308 3.7595232,2.2893707 3.3397903,3.1439705 2.7158948,3.3290605 2.0919993,3.514153 1.2639409,3.0297408 1.2639409,3.0297408 Z"
         id="path13-2"
         sodipodi:nodetypes="csssc"
         inkscape:label="inner" /></g><path
       d="M 2.5108643,0.41176351 C 1.3518847,0.41182516 0.41238985,1.3494417 0.4124349,2.5060018 c 4.505e-5,1.156552 0.9396003,2.0940923 2.0985718,2.0940755 1.1589795,-1.69e-5 2.0985099,-0.9375969 2.0985107,-2.0941569 5.236e-4,7.134e-4 0,-1.424e-4 0,-1.424e-4 C 4.6094378,1.3492181 3.6698437,0.41170187 2.5108643,0.41176351 Z"
       style="fill:none;stroke:#000000;stroke-width:0.171535;stroke-linecap:round;stroke-linejoin:round;stroke-dasharray:none;paint-order:stroke fill markers"
       id="path4-8"
       sodipodi:nodetypes="sssccs"
       inkscape:label="stroke" /><path
       d="M 2.4999285,1.1618908 C 1.7593721,1.1619296 1.159061,1.7610416 1.1590893,2.5000521 1.1591186,3.2390573 1.7594683,3.8381207 2.5000195,3.8381093 3.2405758,3.8380992 3.8409102,3.2390104 3.8409107,2.5000001 3.840909,1.8428414 3.2404848,1.1618508 2.4999285,1.1618908 Z"
       style="fill:none;stroke:#000000;stroke-width:0.109606;stroke-linecap:round;stroke-linejoin:round;stroke-dasharray:none;paint-order:stroke fill markers"
       id="path4-5"
       sodipodi:nodetypes="ccccc"
       inkscape:label="stroke" /></g><g
     inkscape:groupmode="layer"
     id="layer2"
     inkscape:label="bent arrow"
     transform="translate(0.10416664,-0.10416667)"><path
       style="fill:#ffffff;fill-opacity:1;stroke:none;stroke-width:0.243786;stroke-linecap:round;stroke-linejoin:round;stroke-dasharray:none;stroke-dashoffset:0;stroke-opacity:1;paint-order:stroke fill markers"
       d="M 8.7988273,3.7625117 C 6.5703865,3.3582039 6.3049478,0.83759152 6.3049478,0.83759152 c 0,0 0.194963,-0.26299106 0.4927275,0.001336 C 7.0258449,1.4984743 7.3170508,2.9399254 8.725157,3.3460583 8.9852685,3.522897 8.798826,3.7625117 8.7988273,3.7625117 Z"
       id="path7"
       sodipodi:nodetypes="ccccc"
       inkscape:label="handle" /><path
       style="fill:#ffffff;fill-opacity:1;stroke:none;stroke-width:0.222898;stroke-linecap:round;stroke-linejoin:round;stroke-dasharray:none;stroke-dashoffset:0;stroke-opacity:1;paint-order:stroke fill markers"
       d="m 2.8610609,3.0463007 c 0,0 0.076564,-0.4409928 0.097658,-0.4651866 0.036084,-0.041387 0.7945149,0.47592 0.8079836,0.6200782 0.012504,0.1338364 -0.7161871,0.5987663 -0.8378814,0.6208106 -0.027741,0.00503 -0.072549,-0.5266873 -0.072549,-0.5266873"
       id="path9"
       sodipodi:nodetypes="csssc"
       inkscape:path-effect="#path-effect9"
       inkscape:original-d="m 2.8610609,3.0463007 c 0,0 0.076564,-0.4409928 0.097658,-0.4651866 0.036084,-0.041387 0.7945149,0.47592 0.8079836,0.6200782 0.012504,0.1338364 -0.7161871,0.5987663 -0.8378814,0.6208106 -0.027741,0.00503 -0.072549,-0.5266873 -0.072549,-0.5266873"
       inkscape:label="arrow"
       transform="matrix(1.4212007,0,0,1.4212007,4.6423617,-0.97893777)" /><path
       style="fill:#606060;fill-opacity:1;stroke:none;stroke-width:0.243786;stroke-linecap:round;stroke-linejoin:round;stroke-dasharray:none;stroke-dashoffset:0;stroke-opacity:1;paint-order:stroke fill markers"
       d="M 6.401211,0.89921664 C 6.5154104,0.85414055 6.6100489,2.0523833 7.2959913,2.8471969 7.4183075,2.9889269 7.7020004,3.2484266 8.0270051,3.4178359 8.3607265,3.5917887 9.3550334,3.8434595 9.4644699,3.9510849 9.5812409,4.0659236 9.3555537,4.2804975 9.1935946,4.3128893 8.2611569,4.4993767 9.0841124,4.1085667 8.5947825,3.8639018 7.8825007,3.5077609 6.8630255,3.2107928 6.6335237,2.2927858 6.5863974,2.1042809 6.1144621,0.86098349 6.401211,0.89921664 Z"
       id="path10"
       sodipodi:nodetypes="cssssssc"
       inkscape:label="darker-shadow" /><path
       style="fill:#606060;fill-opacity:0.43932;stroke:none;stroke-width:0.243786;stroke-linecap:round;stroke-linejoin:round;stroke-dasharray:none;stroke-dashoffset:0;stroke-opacity:1;paint-order:stroke fill markers"
       d="M 6.510586,0.74296664 C 6.6247854,0.69789055 6.7142156,1.9586333 7.400158,2.7534469 7.5224742,2.8951769 7.8061671,3.1598849 8.1311718,3.3292942 8.4648932,3.503247 9.5998251,3.6715845 9.7092616,3.7792099 9.8260326,3.8940486 9.3555537,4.2804975 9.1935946,4.3128893 8.2611569,4.4993767 9.0841124,4.1085667 8.5947825,3.8639018 7.8825007,3.5077609 6.8630255,3.2107928 6.6335237,2.2927858 6.5863974,2.1042809 6.2238371,0.70473349 6.510586,0.74296664 Z"
       id="path10-9"
       sodipodi:nodetypes="cssssssc"
       inkscape:label="darker-shadow" /><g
       id="g9"
       inkscape:label="stroke"
       transform="matrix(1.4212007,0,0,1.4212007,4.6423617,-0.97893777)"><path
         style="fill:none;fill-opacity:1;stroke:#000000;stroke-width:0.171535;stroke-linecap:round;stroke-linejoin:round;stroke-dasharray:none;stroke-dashoffset:0;stroke-opacity:1;paint-order:stroke fill markers"
         d="M 2.8100321,3.3752904 C 1.2420335,3.0908071 1.1698461,1.2781652 1.1698461,1.2781652 c 0,0 0.1371819,-0.1850485 0.346698,9.402e-4 0.1605471,0.464077 0.3706567,1.4288466 1.361443,1.714614"
         id="path7-8"
         sodipodi:nodetypes="cccc"
         inkscape:label="handle" /><path
         style="fill:none;fill-opacity:1;stroke:#000000;stroke-width:0.222898;stroke-linecap:round;stroke-linejoin:round;stroke-dasharray:none;stroke-dashoffset:0;stroke-opacity:1;paint-order:stroke fill markers"
         d="m 2.8721094,2.965278 c 0,0 0.065516,-0.3599701 0.08661,-0.3841639 0.036084,-0.041387 0.7945149,0.47592 0.8079836,0.6200782 0.012504,0.1338364 -0.7161871,0.5987663 -0.8378814,0.6208106 -0.027741,0.00503 -0.098329,-0.4088362 -0.098329,-0.4088362"
         id="path9-5"
         sodipodi:nodetypes="csssc"
         inkscape:path-effect="#path-effect9-2"
         inkscape:original-d="m 2.8721094,2.965278 c 0,0 0.065516,-0.3599701 0.08661,-0.3841639 0.036084,-0.041387 0.7945149,0.47592 0.8079836,0.6200782 0.012504,0.1338364 -0.7161871,0.5987663 -0.8378814,0.6208106 -0.027741,0.00503 -0.098329,-0.4088362 -0.098329,-0.4088362"
         inkscape:label="arrow" /></g></g><metadata
     id="metadata3"><rdf:RDF><cc:Work
         rdf:about=""><cc:license
           rdf:resource="http://creativecommons.org/licenses/by/4.0/" /></cc:Work><cc:License
         rdf:about="http://creativecommons.org/licenses/by/4.0/"><cc:permits
           rdf:resource="http://creativecommons.org/ns#Reproduction" /><cc:permits
           rdf:resource="http://creativecommons.org/ns#Distribution" /><cc:requires
           rdf:resource="http://creativecommons.org/ns#Notice" /><cc:requires
           rdf:resource="http://creativecommons.org/ns#Attribution" /><cc:permits
           rdf:resource="http://creativecommons.org/ns#DerivativeWorks" /></cc:License></rdf:RDF></metadata><g
     inkscape:groupmode="layer"
     id="layer5"
     inkscape:label="home"><g
       id="g19"
       inkscape:label="base"
       transform="matrix(1.2801294,0,0,1.2801294,-10.817036,3.9030565)"><path
         style="fill:#53d76a;fill-opacity:1;stroke:none;stroke-width:0.179409;stroke-linecap:round;stroke-linejoin:round;stroke-dasharray:none;stroke-dashoffset:0;stroke-opacity:1;paint-order:stroke fill markers"
         d="m 9.0910574,4.7741207 c 0,0 0.7500003,0.072917 0.8333336,0.010417 0.083333,-0.0625 -0.010417,-0.8645836 0.1875,-0.8645836 0.197917,0 0.34375,-0.072917 0.5,-0.020833 0.15625,0.052083 0.08333,0.8333336 0.1875,0.8437503 0.104167,0.010417 0.5625,0.052083 0.666667,0 0.104167,-0.052083 0.114583,-1.4687505 0.05208,-1.5312505 -0.0625,-0.0625 -2.4166669,-0.010417 -2.4166669,-0.010417 0,0 -0.072917,1.2500004 -0.010417,1.5729172 z"
         id="path18"
         transform="translate(-7.8809365,-0.97190929)"
         inkscape:label="house base - fill" /><path
         style="fill:#54be31;fill-opacity:1;stroke:none;stroke-width:0.179409;stroke-linecap:round;stroke-linejoin:round;stroke-dasharray:none;stroke-dashoffset:0;stroke-opacity:1;paint-order:stroke fill markers"
         d="m 1.2291671,3.3072927 c 0,0 0.8229169,0.3281251 0.8385419,0.083333 C 2.083334,3.1458339 1.979167,2.9010422 2.177084,2.8125005 2.3750008,2.7239585 2.7760426,2.5989588 2.9114593,2.7187505 3.046876,2.8385422 3.0260426,3.4531257 3.1145843,3.4635424 3.2031263,3.4739594 3.4583344,3.5104174 3.4843761,3.2604173 3.5104181,3.0104172 3.5104181,2.244792 3.5104181,2.244792 L 3.6614598,2.234375 c 0,0 0.020833,1.4375005 -0.067708,1.5052088 C 3.5052098,3.8072918 3.00521,3.7864588 2.958335,3.7708338 2.9114593,3.7552095 2.8229176,3.1822927 2.8125009,3.0885427 2.8020842,2.9947926 2.7187509,2.9114593 2.5989592,2.9114593 c -0.1197917,0 -0.3906252,0.036458 -0.4114585,0.083333 -0.020833,0.046875 -0.046875,0.8281253 -0.125,0.838542 -0.078125,0.010417 -0.822917,0.09375 -0.8802087,-0.057292 C 1.125,3.6250006 1.229167,3.3072921 1.2291671,3.3072927 Z"
         id="path20"
         inkscape:label="shadow" /><path
         style="fill:none;fill-opacity:1;stroke:#000000;stroke-width:0.179409;stroke-linecap:round;stroke-linejoin:round;stroke-dasharray:none;stroke-dashoffset:0;stroke-opacity:1;paint-order:stroke fill markers"
         d="m 1.2101209,3.8022114 c 0,0 0.7500003,0.072917 0.8333336,0.010417 0.083333,-0.0625 -0.010417,-0.8645836 0.1875,-0.8645836 0.197917,0 0.34375,-0.072917 0.5,-0.020833 0.15625,0.052083 0.08333,0.8333336 0.1875,0.8437503 0.104167,0.010417 0.5625,0.052083 0.666667,0 0.104167,-0.052083 0.114583,-1.4687505 0.05208,-1.5312505 -0.0625,-0.0625 -2.4166669,-0.010417 -2.4166669,-0.010417 0,0 -0.072917,1.2500004 -0.010417,1.5729172 z"
         id="path18-3"
         inkscape:label="house base - stroke" /></g><g
       id="g20"
       inkscape:label="roof"><path
         style="fill:#53d76a;fill-opacity:1;stroke:none;stroke-width:0.229667;stroke-linecap:round;stroke-linejoin:round;stroke-dasharray:none;stroke-dashoffset:0;stroke-opacity:1;paint-order:stroke fill markers"
         d="m -9.2329572,6.675196 c 0,0 2.998437,0 3.055011,-0.00943 0.05658,-0.00943 -1.428558,-1.6277922 -1.607709,-1.590076 -0.179152,0.037716 -1.447302,1.599506 -1.447302,1.599506 z"
         id="path19"
         sodipodi:nodetypes="ccsc"
         inkscape:label="house roof - fill" /><path
         style="fill:#54be31;fill-opacity:1;stroke:none;stroke-width:0.229667;stroke-linecap:round;stroke-linejoin:round;stroke-dasharray:none;stroke-dashoffset:0;stroke-opacity:1;paint-order:stroke fill markers"
         d="m -8.8501702,6.2232917 c 0,0 1.20754,0.4386472 1.607581,0.1452836 0.40004,-0.293363 0.292611,-0.5453242 0.292611,-0.5453242 l 0.740075,0.8200831 -2.986969,0.00667 z"
         id="path21"
         inkscape:label="shadow"
         sodipodi:nodetypes="cscccc" /><path
         style="fill:none;fill-opacity:1;stroke:#000000;stroke-width:0.229667;stroke-linecap:round;stroke-linejoin:round;stroke-dasharray:none;stroke-dashoffset:0;stroke-opacity:1;paint-order:stroke fill markers"
         d="m -9.2329572,6.675196 c 0,0 2.998437,0 3.055011,-0.00943 0.05658,-0.00943 -1.428558,-1.6277922 -1.607709,-1.590076 -0.179152,0.037716 -1.447302,1.599506 -1.447302,1.599506 z"
         id="path19-4"
         sodipodi:nodetypes="ccsc"
         inkscape:label="house roof - stroke" /><path
         style="fill:#8ad687;fill-opacity:1;stroke:none;stroke-width:0.229667;stroke-linecap:round;stroke-linejoin:round;stroke-dasharray:none;stroke-dashoffset:0;stroke-opacity:1;paint-order:stroke fill markers"
         d="m -7.6567162,5.6765695 c -0.177476,-0.4346121 -1.14954,0.7463984 0,0 z"
         id="path22"
         sodipodi:nodetypes="cc" /><path
         style="fill:#8ad687;fill-opacity:1;stroke:none;stroke-width:0.229667;stroke-linecap:round;stroke-linejoin:round;stroke-dasharray:none;stroke-dashoffset:0;stroke-opacity:1;paint-order:stroke fill markers"
         d="m -9.0066592,7.2032226 c -0.02232,0.072571 -0.03905,0.3428107 0.09429,0.3205877 0.136422,-0.022736 0.211927,-0.24392 0.367733,-0.3205877 0.11664,-0.057395 0.337674,-0.02591 0.381877,-0.2027243 -0.218341,-0.1355445 -0.78303,0.046771 -0.8439,0.2027243 z"
         id="path23"
         sodipodi:nodetypes="csscc" /></g></g><g
     inkscape:groupmode="layer"
     id="layer6"
     inkscape:label="x"
     transform="translate(15.583333,0.0625)"><path
       style="fill:#c53538;fill-opacity:1;stroke:none;stroke-width:0.254809;stroke-linecap:round;stroke-linejoin:round;stroke-dasharray:none;stroke-dashoffset:0;stroke-opacity:1;paint-order:stroke fill markers"
       d="M 2.0349649,0.72330601 1.2189849,0.59777072 V 1.3509831 c 0,0 1.127924,0.9957069 1.124524,1.1071916 -0.002,0.066351 -1.108896,1.3599669 -1.108896,1.3599669 V 4.571354 l 0.6486,-0.062767 c 0,0 0.990695,-1.5479585 1.129819,-1.5482698 0.116627,-2.611e-4 1.087973,1.2971991 1.087973,1.2971991 l 0.712265,0.2323787 0.06546,-0.6926752 c 0,0 -1.176376,-1.1767681 -1.175254,-1.2553539 0.0017,-0.1176723 1.138485,-1.1581386 1.138485,-1.1581386 l 0.07165,-0.79505742 -0.799916,0.13906011 c 0,0 -1.016644,1.37498241 -1.075935,1.37265861 -0.05929,-0.00232 -1.002798,-1.37708219 -1.002798,-1.37708219 z"
       id="path24"
       sodipodi:nodetypes="cccscccscccsccczc"
       inkscape:label="fill" /><path
       style="fill:none;fill-opacity:1;stroke:#000000;stroke-width:0.254809;stroke-linecap:round;stroke-linejoin:round;stroke-dasharray:none;stroke-dashoffset:0;stroke-opacity:1;paint-order:stroke fill markers"
       d="M 2.0349649,0.72330601 1.2189849,0.59777072 V 1.3509831 c 0,0 1.127924,0.9957069 1.124524,1.1071916 -0.002,0.066351 -1.108896,1.3599669 -1.108896,1.3599669 V 4.571354 l 0.6486,-0.062767 c 0,0 0.990695,-1.5479585 1.129819,-1.5482698 0.116627,-2.611e-4 1.087973,1.2971991 1.087973,1.2971991 l 0.712265,0.2323787 0.06546,-0.6926752 c 0,0 -1.176376,-1.1767681 -1.175254,-1.2553539 0.0017,-0.1176723 1.138485,-1.1581386 1.138485,-1.1581386 l 0.07165,-0.79505742 -0.799916,0.13906011 c 0,0 -1.016644,1.37498241 -1.075935,1.37265861 -0.05929,-0.00232 -1.002798,-1.37708219 -1.002798,-1.37708219 z"
       id="path24-1"
       sodipodi:nodetypes="cccscccscccsccczc"
       inkscape:label="stroke" /></g><g
     inkscape:groupmode="layer"
     id="layer7"
     inkscape:label="restart"><circle
       style="display:inline;fill:none;fill-opacity:1;stroke:#000000;stroke-width:0.179409;stroke-linecap:round;stroke-linejoin:round;stroke-dasharray:none;stroke-dashoffset:0;stroke-opacity:1;paint-order:stroke fill markers;opacity:0.117"
       id="path25"
       cx="2.5"
       cy="2.5"
       r="1.8635216"
       sodipodi:insensitive="true" /><path
       style="fill:#ffffff;fill-opacity:1;stroke:none;stroke-width:0.179409;stroke-linecap:round;stroke-linejoin:round;stroke-dasharray:none;stroke-dashoffset:0;stroke-opacity:1;paint-order:stroke fill markers"
       d="m 4.299257,2.5093924 c 0,0 0.036828,-1.94454431 -1.8414245,-1.92981291 C 0.5795795,0.59431089 0.5501167,2.4872953 0.5501167,2.4872953 0.60167658,2.7966546 0.8742074,4.3066227 2.4578325,4.2697942 3.3530405,4.2489754 3.5815086,3.8659287 3.8296673,3.5009926 L 3.5405889,3.2901553 c 0,0 -0.5524271,0.7586666 -1.5615274,0.5597929 C 0.96996117,3.6510744 0.84474432,2.3915404 1.0583495,1.868576 c 0.2136052,-0.5229644 1.3110938,-1.3331909 2.276,-0.7218381 0,0 0.6923753,0.4493074 0.6187184,1.3331909 L 3.466932,2.2589579 c 0,0 0.1915081,0.773398 0.5008673,0.942809 0.3093592,0.169411 0.847055,-0.603987 0.847055,-0.603987 z"
       id="path26"
       sodipodi:nodetypes="cscsc"
       inkscape:label="fill" /><path
       style="fill:none;fill-opacity:1;stroke:#000000;stroke-width:0.179409;stroke-linecap:round;stroke-linejoin:round;stroke-dasharray:none;stroke-dashoffset:0;stroke-opacity:1;paint-order:stroke fill markers"
       d="m 4.299257,2.5093924 c 0,0 0.036828,-1.94454431 -1.8414245,-1.92981291 C 0.5795795,0.59431089 0.5501167,2.4872953 0.5501167,2.4872953 0.60167658,2.7966546 0.8742074,4.3066227 2.4578325,4.2697942 3.3530405,4.2489754 3.5815086,3.8659287 3.8296673,3.5009926 L 3.5405889,3.2901553 c 0,0 -0.5524271,0.7586666 -1.5615274,0.5597929 C 0.96996117,3.6510744 0.84474432,2.3915404 1.0583495,1.868576 c 0.2136052,-0.5229644 1.3110938,-1.3331909 2.276,-0.7218381 0,0 0.6923753,0.4493074 0.6187184,1.3331909 L 3.466932,2.2589579 c 0,0 0.1915081,0.773398 0.5008673,0.942809 0.3093592,0.169411 0.847055,-0.603987 0.847055,-0.603987 z"
       id="path26-3"
       sodipodi:nodetypes="cscsc"
       inkscape:label="stroke" /></g></svg>
