<?xml version="1.0" encoding="UTF-8" standalone="no"?>
<!-- Created with Inkscape (http://www.inkscape.org/) -->

<svg
   width="5in"
   height="5in"
   viewBox="0 0 5 5"
   version="1.1"
   id="svg1"
   inkscape:version="1.4.3 (0d15f75, 2025-12-25)"
   sodipodi:docname="coin icon.svg"
   xmlns:inkscape="http://www.inkscape.org/namespaces/inkscape"
   xmlns:sodipodi="http://sodipodi.sourceforge.net/DTD/sodipodi-0.dtd"
   xmlns="http://www.w3.org/2000/svg"
   xmlns:svg="http://www.w3.org/2000/svg"
   xmlns:rdf="http://www.w3.org/1999/02/22-rdf-syntax-ns#"
   xmlns:cc="http://creativecommons.org/ns#">
  <sodipodi:namedview
     id="namedview1"
     pagecolor="#505050"
     bordercolor="#ffffff"
     borderopacity="1"
     inkscape:showpageshadow="0"
     inkscape:pageopacity="0"
     inkscape:pagecheckerboard="1"
     inkscape:deskcolor="#505050"
     inkscape:document-units="mm"
     inkscape:zoom="1.1888233"
     inkscape:cx="374.74031"
     inkscape:cy="245.20045"
     inkscape:window-width="1920"
     inkscape:window-height="1009"
     inkscape:window-x="2552"
     inkscape:window-y="-8"
     inkscape:window-maximized="1"
     inkscape:current-layer="layer2" />
  <defs
     id="defs1" />
  <g
     inkscape:label="circle"
     inkscape:groupmode="layer"
     id="layer1">
    <path
       style="fill:#ffd23d;fill-opacity:1;stroke-width:0.32901575;stroke-linecap:round;stroke-linejoin:round;stroke-opacity:0.42;paint-order:markers stroke fill;stroke-dasharray:none"
       id="path3"
       sodipodi:type="arc"
       sodipodi:cx="2.5"
       sodipodi:cy="2.5"
       sodipodi:rx="2.0985394"
       sodipodi:ry="2.0941584"
       sodipodi:start="0"
       sodipodi:end="6.2831122"
       sodipodi:arc-type="slice"
       d="M 4.5985394,2.5 A 2.0985394,2.0941584 0 0 1 2.5000384,4.5941584 2.0985394,2.0941584 0 0 1 0.40146065,2.5000765 2.0985394,2.0941584 0 0 1 2.4998849,0.40584159 2.0985394,2.0941584 0 0 1 4.5985393,2.4998469 L 2.5,2.5 Z"
       inkscape:label="fill" />
  </g>
  <g
     inkscape:groupmode="layer"
     id="layer2"
     inkscape:label="circle - highlights">
    <path
       style="fill:#ffe598;fill-opacity:1;stroke:none;stroke-width:0.336045;stroke-linecap:round;stroke-linejoin:round;stroke-dasharray:none;stroke-opacity:1;paint-order:markers stroke fill"
       d="m 4.4913953,1.8943148 c 0,0 -1.0381254,-1.18994553 -2.3585307,-0.8680259 C 0.63713775,1.3909526 0.5879265,3.4073814 0.5879265,3.4073814 0.3096885,3.1101017 0.01216618,0.70394286 2.2181472,0.39367815 4.0974639,0.12935795 4.4913953,1.8943148 4.4913953,1.8943148 Z"
       id="path2"
       sodipodi:nodetypes="cscsc"
       inkscape:label="main" />
    <path
       style="fill:#fee8b2;fill-opacity:0.55;stroke:none;stroke-width:0.171535;stroke-linecap:round;stroke-linejoin:round;stroke-dasharray:none;stroke-opacity:1;paint-order:stroke fill markers"
       d="M 3.7122373,2.0733789 C 3.7121758,1.8472327 3.4701715,1.4848411 3.1086877,1.3102892 2.747204,1.1357373 2.2662407,1.1490252 1.9121768,1.3148823 1.2900542,1.6063084 1.0770595,2.4092061 1.1660584,2.6671819 1.2168566,2.8144281 1.6363569,1.9597141 2.2602019,1.7744544 2.8840471,1.5891921 3.7122373,2.0733789 3.7122373,2.0733789 Z"
       id="path13-1"
       sodipodi:nodetypes="cssssc"
       inkscape:label="inner" />
  </g>
  <g
     inkscape:groupmode="layer"
     id="layer3"
     inkscape:label="circle - shadow">
    <path
       style="fill:#d99f05;fill-opacity:1;stroke:none;stroke-width:0.171535;stroke-linecap:round;stroke-linejoin:round;stroke-dasharray:none;stroke-opacity:1;paint-order:stroke fill markers"
       d="M 0.72725999,3.5311539 C 3.4856885,4.9700489 4.5578311,2.1396237 4.5578311,2.1396237 c 0,0 0.124701,1.8936988 -1.3737925,2.3437289 C 1.6556937,4.9423477 0.72725999,3.5311539 0.72725999,3.5311539 Z"
       id="path5"
       sodipodi:nodetypes="ccsc"
       inkscape:label="main" />
    <path
       style="display:none;fill:none;fill-opacity:1;stroke:#000000;stroke-width:0.171535;stroke-linecap:round;stroke-linejoin:round;stroke-dasharray:none;stroke-opacity:1;paint-order:stroke fill markers"
       id="path12"
       sodipodi:type="arc"
       sodipodi:cx="2.5092945"
       sodipodi:cy="2.5030987"
       sodipodi:rx="1.3506819"
       sodipodi:ry="1.3506819"
       sodipodi:start="0"
       sodipodi:end="6.2831122"
       sodipodi:arc-type="slice"
       d="M 3.8599764,2.5030987 A 1.3506819,1.3506819 0 0 1 2.5093192,3.8537806 1.3506819,1.3506819 0 0 1 1.1586126,2.5031481 1.3506819,1.3506819 0 0 1 2.5092205,1.1524168 1.3506819,1.3506819 0 0 1 3.8599764,2.503 l -1.3506819,9.87e-5 z" />
    <path
       style="fill:#d99f05;fill-opacity:0.55466664;stroke:none;stroke-width:0.171535;stroke-linecap:round;stroke-linejoin:round;stroke-dasharray:none;stroke-opacity:1;paint-order:stroke fill markers"
       d="m 1.2639409,3.0297408 c 0,0.4522925 1.082365,1.0068623 1.790583,0.6753409 C 3.6767259,3.4138249 3.89921,2.6946308 3.8102812,2.4366308 3.7595232,2.2893707 3.3397903,3.1439705 2.7158948,3.3290605 2.0919993,3.514153 1.2639409,3.0297408 1.2639409,3.0297408 Z"
       id="path13"
       sodipodi:nodetypes="csssc"
       inkscape:label="inner" />
  </g>
  <path
     d="M 2.5108643,0.41176351 C 1.3518847,0.41182516 0.41238985,1.3494417 0.4124349,2.5060018 c 4.505e-5,1.156552 0.9396003,2.0940923 2.0985718,2.0940755 1.1589795,-1.69e-5 2.0985099,-0.9375969 2.0985107,-2.0941569 5.236e-4,7.134e-4 0,-1.424e-4 0,-1.424e-4 C 4.6094378,1.3492181 3.6698437,0.41170187 2.5108643,0.41176351 Z"
     style="fill:none;stroke:#000000;stroke-width:0.171535;stroke-linecap:round;stroke-linejoin:round;stroke-dasharray:none;paint-order:stroke fill markers"
     id="path4"
     sodipodi:nodetypes="sssccs"
     inkscape:label="stroke" />
  <path
     d="M 2.4999285,1.1618908 C 1.7593721,1.1619296 1.159061,1.7610416 1.1590893,2.5000521 1.1591186,3.2390573 1.7594683,3.8381207 2.5000195,3.8381093 3.2405758,3.8380992 3.8409102,3.2390104 3.8409107,2.5000001 3.840909,1.8428414 3.2404848,1.1618508 2.4999285,1.1618908 Z"
     style="fill:none;stroke:#000000;stroke-width:0.109606;stroke-linecap:round;stroke-linejoin:round;stroke-dasharray:none;paint-order:stroke fill markers"
     id="path4-5"
     sodipodi:nodetypes="ccccc"
     inkscape:label="stroke" />
  <metadata
     id="metadata3">
    <rdf:RDF>
      <cc:License
         rdf:about="http://creativecommons.org/licenses/by/4.0/">
        <cc:permits
           rdf:resource="http://creativecommons.org/ns#Reproduction" />
        <cc:permits
           rdf:resource="http://creativecommons.org/ns#Distribution" />
        <cc:requires
           rdf:resource="http://creativecommons.org/ns#Notice" />
        <cc:requires
           rdf:resource="http://creativecommons.org/ns#Attribution" />
        <cc:permits
           rdf:resource="http://creativecommons.org/ns#DerivativeWorks" />
      </cc:License>
      <cc:Work
         rdf:about="">
        <cc:license
           rdf:resource="http://creativecommons.org/licenses/by/4.0/" />
      </cc:Work>
    </rdf:RDF>
  </metadata>
</svg>
