<?xml version="1.0" encoding="UTF-8" standalone="no"?>
<!-- Created with Inkscape (http://www.inkscape.org/) -->

<svg
   width="5in"
   height="5in"
   viewBox="0 0 5 5"
   version="1.1"
   id="svg1"
   inkscape:version="1.4.3 (0d15f75, 2025-12-25)"
   sodipodi:docname="cog icon.svg"
   xmlns:inkscape="http://www.inkscape.org/namespaces/inkscape"
   xmlns:sodipodi="http://sodipodi.sourceforge.net/DTD/sodipodi-0.dtd"
   xmlns="http://www.w3.org/2000/svg"
   xmlns:svg="http://www.w3.org/2000/svg"
   xmlns:rdf="http://www.w3.org/1999/02/22-rdf-syntax-ns#"
   xmlns:cc="http://creativecommons.org/ns#">
  <sodipodi:namedview
     id="namedview1"
     pagecolor="#505050"
     bordercolor="#ffffff"
     borderopacity="1"
     inkscape:showpageshadow="0"
     inkscape:pageopacity="0"
     inkscape:pagecheckerboard="1"
     inkscape:deskcolor="#505050"
     inkscape:document-units="mm"
     inkscape:zoom="0.35355339"
     inkscape:cx="-168.29141"
     inkscape:cy="45.254834"
     inkscape:window-width="1920"
     inkscape:window-height="1009"
     inkscape:window-x="2552"
     inkscape:window-y="-8"
     inkscape:window-maximized="1"
     inkscape:current-layer="layer3"
     showguides="false" />
  <defs
     id="defs1">
    <inkscape:path-effect
       effect="powerclip"
       message=""
       id="path-effect10"
       is_visible="true"
       lpeversion="1"
       inverse="true"
       flatten="false"
       hide_clip="false" />
    <linearGradient
       id="swatch8"
       inkscape:swatch="solid">
      <stop
         style="stop-color:#727d88;stop-opacity:1;"
         offset="0"
         id="stop8" />
    </linearGradient>
    <filter
       id="mask-powermask-path-effect10_inverse"
       inkscape:label="filtermask-powermask-path-effect10"
       style="color-interpolation-filters:sRGB"
       height="100"
       width="100"
       x="-50"
       y="-50">
      <feColorMatrix
         id="mask-powermask-path-effect10_primitive1"
         values="1"
         type="saturate"
         result="fbSourceGraphic" />
      <feColorMatrix
         id="mask-powermask-path-effect10_primitive2"
         values="-1 0 0 0 1 0 -1 0 0 1 0 0 -1 0 1 0 0 0 1 0 "
         in="fbSourceGraphic" />
    </filter>
    <clipPath
       clipPathUnits="userSpaceOnUse"
       id="clipPath10">
      <path
         style="display:none;fill:#ffffff;fill-opacity:1;fill-rule:nonzero;stroke:none;stroke-width:0.152756;stroke-linecap:round;stroke-linejoin:round;stroke-dasharray:none;stroke-opacity:1;paint-order:stroke fill markers"
         d="M 2.5441718,2.8803297 C 1.7252936,2.9170702 1.9300131,1.8094889 2.517926,1.8672304 c 0.5879125,0.057741 0.6719001,1.0078501 0.026246,1.0130993 z"
         id="path10"
         sodipodi:nodetypes="csc"
         inkscape:label="inner circle mask" />
      <path
         id="lpe_path-effect10"
         style="fill:#ffffff;fill-opacity:1;fill-rule:nonzero;stroke:none;stroke-width:0.152756;stroke-linecap:round;stroke-linejoin:round;stroke-dasharray:none;stroke-opacity:1;paint-order:stroke fill markers"
         class="powerclip"
         d="M -4.1144701,-4.202546 H 9.0520833 V 9.0084954 H -4.1144701 Z M 2.5441718,2.8803297 C 3.1898261,2.8750805 3.1058385,1.9249714 2.517926,1.8672304 1.9300131,1.8094889 1.7252936,2.9170702 2.5441718,2.8803297 Z" />
    </clipPath>
  </defs>
  <metadata
     id="metadata3">
    <rdf:RDF>
      <cc:License
         rdf:about="http://creativecommons.org/licenses/by/4.0/">
        <cc:permits
           rdf:resource="http://creativecommons.org/ns#Reproduction" />
        <cc:permits
           rdf:resource="http://creativecommons.org/ns#Distribution" />
        <cc:requires
           rdf:resource="http://creativecommons.org/ns#Notice" />
        <cc:requires
           rdf:resource="http://creativecommons.org/ns#Attribution" />
        <cc:permits
           rdf:resource="http://creativecommons.org/ns#DerivativeWorks" />
      </cc:License>
      <cc:Work
         rdf:about="">
        <cc:license
           rdf:resource="http://creativecommons.org/licenses/by/4.0/" />
      </cc:Work>
    </rdf:RDF>
  </metadata>
  <g
     id="g4"
     inkscape:label="hamer"
     transform="translate(4.3645833,-0.17708333)">
    <g
       inkscape:label="handle"
       inkscape:groupmode="layer"
       id="layer1"
       transform="matrix(0.72971531,0,0,1.0046464,0.58746466,-0.01169246)">
      <path
         style="fill:#9b491e;fill-opacity:1;stroke:none;stroke-width:0.113349;stroke-linecap:round;stroke-linejoin:round;paint-order:stroke fill markers"
         d="m 2.271222,1.9625525 -10e-8,3.3e-6 c 0,0 -0.00712,2.1382909 0.09266,2.1881844 0.099787,0.049893 0.4561688,0.1140426 0.5630832,0.049893 0.1069147,-0.064148 0.078404,-2.2238225 0.042765,-2.2452054 0,0 -0.1318622,-0.2779783 -0.1603728,-0.4276587 -0.028511,-0.1496803 0.085532,-0.76622068 0.035639,-0.76978454 -0.049893,-0.003562 -0.427658,-0.0712763 -0.4882429,-0.0178193 -0.060585,0.0534579 0.00356,0.65574234 0.00356,0.76265684 0,0.1069147 -0.089094,0.4597299 -0.089093,0.4597301 z"
         id="path1"
         inkscape:label="fill"
         sodipodi:nodetypes="ccccc" />
      <path
         style="fill:none;fill-opacity:1;stroke:#000815;stroke-width:0.113349;stroke-linecap:round;stroke-linejoin:round;stroke-opacity:0.221739;paint-order:stroke fill markers"
         d="M 2.4850511,0.78649574 C 2.5614771,1.9090156 2.3192358,3.0360558 2.4993058,4.1436126"
         id="path3"
         inkscape:label="shadow-large"
         sodipodi:nodetypes="cc" />
      <path
         style="fill:none;fill-opacity:1;stroke:#000815;stroke-width:0.0764427;stroke-linecap:round;stroke-linejoin:round;stroke-dasharray:none;stroke-opacity:0.221739;paint-order:stroke fill markers"
         d="M 2.6350471,0.77297149 C 2.6711532,1.9156516 2.5241085,3.057835 2.6442573,4.1704085"
         id="path3-1"
         inkscape:label="shadow-small"
         sodipodi:nodetypes="cc" />
      <path
         style="fill:none;fill-opacity:1;stroke:#d8d4cc;stroke-width:0.0764427;stroke-linecap:round;stroke-linejoin:round;stroke-dasharray:none;stroke-opacity:0.221739;paint-order:stroke fill markers"
         d="M 2.726676,0.79674193 C 2.7627822,1.9394221 2.9058232,3.0765888 2.798047,4.1891623"
         id="path3-1-2"
         inkscape:label="highlight"
         sodipodi:nodetypes="cc" />
      <path
         style="fill:none;fill-opacity:0.478261;stroke:#000000;stroke-width:0.113349;stroke-linecap:round;stroke-linejoin:round;paint-order:stroke fill markers"
         d="m 2.271222,1.9625525 -10e-8,3.3e-6 c 0,0 -0.00712,2.1382909 0.09266,2.1881844 0.099787,0.049893 0.4561688,0.1140426 0.5630832,0.049893 0.1069147,-0.064148 0.078404,-2.2238225 0.042765,-2.2452054 0,0 -0.1318622,-0.2779783 -0.1603728,-0.4276587 -0.028511,-0.1496803 0.085532,-0.76622068 0.035639,-0.76978454 -0.049893,-0.003562 -0.427658,-0.0712763 -0.4882429,-0.0178193 -0.060585,0.0534579 0.00356,0.65574234 0.00356,0.76265684 0,0.1069147 -0.089094,0.4597299 -0.089093,0.4597301 z"
         id="path1-8"
         inkscape:label="stroke"
         sodipodi:nodetypes="ccccc" />
    </g>
    <g
       inkscape:groupmode="layer"
       id="layer2"
       inkscape:label="head">
      <path
         style="fill:#f1b040;fill-opacity:1;stroke:none;stroke-width:0.179366;stroke-linecap:round;stroke-linejoin:round;stroke-dasharray:none;paint-order:stroke fill markers"
         d="m 1.5495442,2.0368784 c 0.8177496,-0.073316 1.7031747,0.1240723 1.8385263,0 C 3.5234227,1.9128061 3.6982515,1.2473271 3.5403415,1.1119755 3.3824316,0.97662345 1.526986,1.0048221 1.4762292,1.0555783 1.4254722,1.1063341 1.3521568,1.9804812 1.5495442,2.0368784 Z"
         id="path2"
         inkscape:label="fill" />
      <path
         style="fill:none;fill-opacity:0.478261;stroke:#000000;stroke-width:0.179372;stroke-linecap:round;stroke-linejoin:round;paint-order:stroke fill markers"
         d="m 1.5495442,2.0368784 c 0.8177496,-0.073316 1.7031747,0.1240723 1.8385263,0 C 3.5234227,1.9128061 3.6982515,1.2473271 3.5403415,1.1119755 3.3824316,0.97662345 1.526986,1.0048221 1.4762292,1.0555783 1.4254722,1.1063341 1.3521568,1.9804812 1.5495442,2.0368784 Z"
         id="path2-2"
         inkscape:label="stroke" />
      <path
         style="fill:#ffc45c;fill-opacity:1;stroke:none;stroke-width:0.244971;stroke-linecap:round;stroke-linejoin:round;stroke-dasharray:none;stroke-opacity:0.221739;paint-order:stroke fill markers"
         d="M 2.7373663,1.2879796 C 2.5264033,1.1633283 1.830795,1.1051578 1.6882523,1.2505844 1.5457098,1.3960106 1.8250935,1.5663672 2.0360565,1.5539022 2.2470196,1.5414368 2.7601732,1.4791113 2.7373663,1.2879796 Z"
         id="path4" />
    </g>
  </g>
  <g
     inkscape:groupmode="layer"
     id="layer3"
     inkscape:label="cog">
    <path
       style="fill:#727d88;fill-opacity:1;fill-rule:nonzero;stroke:none;stroke-width:0.153071;stroke-linecap:round;stroke-linejoin:round;stroke-dasharray:none;stroke-opacity:1;paint-order:stroke fill markers"
       d="M 2.9947926,0.92708363 C 2.9479176,0.80208359 2.2708341,0.76041691 2.2343757,0.8333336 c -0.036458,0.0729167 -0.00521,0.1770834 -0.00521,0.1770834 0,0 -0.2708334,0.036458 -0.4895835,0.1927084 L 1.625,1.0572917 c 0,0 -0.3697917,0.2760416 -0.421875,0.4427083 l 0.125,0.09375 c 0,0 -0.203125,0.34375 -0.21875,0.4895833 L 0.90625,2.0572917 c 0,0 -0.0677083,0.4114583 0.0416667,0.4947916 l 0.15625,-0.00521 c 0,0 0.083333,0.484375 0.2083333,0.5885417 L 1.109375,3.2708333 c 0,0 0.3020833,0.4114584 0.4947917,0.4114584 L 1.7552083,3.53125 c 0,0 0.3645834,0.2239583 0.5885417,0.2083333 l -0.020833,0.265625 c 0,0 0.4479166,0.03125 0.6875,-0.098958 L 2.9375,3.6822917 c 0,0 0.4010417,-0.21875 0.5,-0.4166667 L 3.734375,3.40625 c 0,0 0.21875,-0.3020833 0.2604167,-0.515625 l -0.28125,-0.125 c 0,0 0.1197916,-0.3697917 0.078125,-0.6145833 l 0.2604166,-0.067708 c 0,0 -0.067708,-0.3177083 -0.2239583,-0.5260416 L 3.5833333,1.6354167 3.4270833,1.4583333 3.546875,1.2291667 3.2916667,1.046875 3.0989583,1.2552083 2.90625,1.1458333 Z"
       id="path7-1"
       inkscape:label="fill"
       clip-path="url(#clipPath10)"
       inkscape:path-effect="#path-effect10"
       inkscape:original-d="M 2.9947926,0.92708363 C 2.9479176,0.80208359 2.2708341,0.76041691 2.2343757,0.8333336 c -0.036458,0.0729167 -0.00521,0.1770834 -0.00521,0.1770834 0,0 -0.2708334,0.036458 -0.4895835,0.1927084 L 1.625,1.0572917 c 0,0 -0.3697917,0.2760416 -0.421875,0.4427083 l 0.125,0.09375 c 0,0 -0.203125,0.34375 -0.21875,0.4895833 L 0.90625,2.0572917 c 0,0 -0.0677083,0.4114583 0.0416667,0.4947916 l 0.15625,-0.00521 c 0,0 0.083333,0.484375 0.2083333,0.5885417 L 1.109375,3.2708333 c 0,0 0.3020833,0.4114584 0.4947917,0.4114584 L 1.7552083,3.53125 c 0,0 0.3645834,0.2239583 0.5885417,0.2083333 l -0.020833,0.265625 c 0,0 0.4479166,0.03125 0.6875,-0.098958 L 2.9375,3.6822917 c 0,0 0.4010417,-0.21875 0.5,-0.4166667 L 3.734375,3.40625 c 0,0 0.21875,-0.3020833 0.2604167,-0.515625 l -0.28125,-0.125 c 0,0 0.1197916,-0.3697917 0.078125,-0.6145833 l 0.2604166,-0.067708 c 0,0 -0.067708,-0.3177083 -0.2239583,-0.5260416 L 3.5833333,1.6354167 3.4270833,1.4583333 3.546875,1.2291667 3.2916667,1.046875 3.0989583,1.2552083 2.90625,1.1458333 Z" />
    <path
       style="display:inline;fill:none;fill-opacity:1;fill-rule:nonzero;stroke:#000000;stroke-width:0.152756;stroke-linecap:round;stroke-linejoin:round;stroke-dasharray:none;stroke-opacity:1;paint-order:stroke fill markers"
       d="M 2.5441718,2.8803297 C 1.7252936,2.9170702 1.9300131,1.8094889 2.517926,1.8672304 c 0.5879125,0.057741 0.6719001,1.0078501 0.026246,1.0130993 z"
       id="path8-6"
       sodipodi:nodetypes="csc"
       inkscape:label="inner circle stroke" />
    <path
       style="fill:#526272;fill-opacity:1;fill-rule:nonzero;stroke:none;stroke-width:0.152756;stroke-linecap:round;stroke-linejoin:round;stroke-dasharray:none;stroke-opacity:1;paint-order:stroke fill markers"
       d="m 3.4583344,1.5572922 c -0.00125,0.1674666 0.1468061,0.3161657 0.1229218,0.45932 C 3.5604277,2.1414514 3.3673818,2.2638379 3.3648451,2.36804 3.3588969,2.6123902 3.4294989,2.797961 3.3318224,2.9288172 3.256065,3.0303086 2.9757083,3.0381696 2.8856113,3.1000995 2.7337436,3.2044888 2.7452594,3.3357667 2.5558144,3.327487 2.474632,3.3239389 2.226602,3.3310438 2.0559973,3.2362207 1.9216083,3.1615265 1.8590217,2.9830544 1.8012137,2.9637889 1.6369782,2.9090545 1.6249202,2.9737946 1.5014022,2.907498 1.3144103,2.8071328 1.1927087,2.7187509 1.1927087,2.7187509 L 1.2760417,3.1458333 1.1302083,3.28125 1.5677083,3.6822917 1.7447917,3.546875 2.3333333,3.7395833 v 0.25 L 2.984375,3.9375 2.9375,3.6822917 3.4427083,3.2708333 3.734375,3.3802083 3.984375,2.9010417 3.71875,2.7916667 3.8072917,2.171875 4.0416667,2.0885417 3.828125,1.5833333 3.5989583,1.6041667 Z"
       id="path11"
       sodipodi:nodetypes="csssssssscccccccccccccccccc"
       inkscape:label="shadow" />
    <path
       style="fill:none;fill-opacity:1;stroke:#000000;stroke-width:0.153071;stroke-linecap:round;stroke-linejoin:round;stroke-dasharray:none;stroke-opacity:1;paint-order:stroke fill markers"
       d="M 2.9947926,0.92708363 C 2.9479176,0.80208359 2.2708341,0.76041691 2.2343757,0.8333336 c -0.036458,0.0729167 -0.00521,0.1770834 -0.00521,0.1770834 0,0 -0.2708334,0.036458 -0.4895835,0.1927084 L 1.625,1.0572917 c 0,0 -0.3697917,0.2760416 -0.421875,0.4427083 l 0.125,0.09375 c 0,0 -0.203125,0.34375 -0.21875,0.4895833 L 0.90625,2.0572917 c 0,0 -0.0677083,0.4114583 0.0416667,0.4947916 l 0.15625,-0.00521 c 0,0 0.083333,0.484375 0.2083333,0.5885417 L 1.109375,3.2708333 c 0,0 0.3020833,0.4114584 0.4947917,0.4114584 L 1.7552083,3.53125 c 0,0 0.3645834,0.2239583 0.5885417,0.2083333 l -0.020833,0.265625 c 0,0 0.4479166,0.03125 0.6875,-0.098958 L 2.9375,3.6822917 c 0,0 0.4010417,-0.21875 0.5,-0.4166667 L 3.734375,3.40625 c 0,0 0.21875,-0.3020833 0.2604167,-0.515625 l -0.28125,-0.125 c 0,0 0.1197916,-0.3697917 0.078125,-0.6145833 l 0.2604166,-0.067708 c 0,0 -0.067708,-0.3177083 -0.2239583,-0.5260416 L 3.5833333,1.6354167 3.4270833,1.4583333 3.546875,1.2291667 3.2916667,1.046875 3.0989583,1.2552083 2.90625,1.1458333 Z"
       id="path7"
       inkscape:label="outer stroke" />
    <path
       style="fill:#a5b4b9;fill-opacity:1;fill-rule:nonzero;stroke:none;stroke-width:0.152756;stroke-linecap:round;stroke-linejoin:round;stroke-dasharray:none;stroke-opacity:1;paint-order:stroke fill markers"
       d="m 2.7032112,1.2006087 c 0.060259,0.034921 0.021568,0.174433 -0.036829,0.220971 -0.2916493,0.02064 -0.7344914,-0.018441 -0.8102267,0.4272106 0.00737,0.1252169 -0.4188978,0.082014 -0.4493076,-0.066291 -0.014813,-0.072243 0.294628,-0.464039 0.7586669,-0.5671587 0.464039,-0.1031198 0.4635805,-0.057683 0.5376964,-0.014732 z"
       id="path12"
       inkscape:label="highlight"
       sodipodi:nodetypes="sscsss" />
  </g>
</svg>
