<?xml version="1.0" encoding="UTF-8" standalone="no"?>
<!-- Created with Inkscape (http://www.inkscape.org/) -->

<svg
   width="5in"
   height="5in"
   viewBox="0 0 5 5"
   version="1.1"
   id="svg1"
   inkscape:version="1.4.3 (0d15f75, 2025-12-25)"
   sodipodi:docname="hammer icon.svg"
   xmlns:inkscape="http://www.inkscape.org/namespaces/inkscape"
   xmlns:sodipodi="http://sodipodi.sourceforge.net/DTD/sodipodi-0.dtd"
   xmlns="http://www.w3.org/2000/svg"
   xmlns:svg="http://www.w3.org/2000/svg"
   xmlns:rdf="http://www.w3.org/1999/02/22-rdf-syntax-ns#"
   xmlns:cc="http://creativecommons.org/ns#">
  <sodipodi:namedview
     id="namedview1"
     pagecolor="#505050"
     bordercolor="#ffffff"
     borderopacity="1"
     inkscape:showpageshadow="0"
     inkscape:pageopacity="0"
     inkscape:pagecheckerboard="1"
     inkscape:deskcolor="#505050"
     inkscape:document-units="mm"
     inkscape:zoom="1.4142136"
     inkscape:cx="249.96225"
     inkscape:cy="260.21529"
     inkscape:window-width="1920"
     inkscape:window-height="1009"
     inkscape:window-x="2552"
     inkscape:window-y="-8"
     inkscape:window-maximized="1"
     inkscape:current-layer="svg1" />
  <defs
     id="defs1" />
  <metadata
     id="metadata3">
    <rdf:RDF>
      <cc:License
         rdf:about="http://creativecommons.org/licenses/by/4.0/">
        <cc:permits
           rdf:resource="http://creativecommons.org/ns#Reproduction" />
        <cc:permits
           rdf:resource="http://creativecommons.org/ns#Distribution" />
        <cc:requires
           rdf:resource="http://creativecommons.org/ns#Notice" />
        <cc:requires
           rdf:resource="http://creativecommons.org/ns#Attribution" />
        <cc:permits
           rdf:resource="http://creativecommons.org/ns#DerivativeWorks" />
      </cc:License>
      <cc:Work
         rdf:about="">
        <cc:license
           rdf:resource="http://creativecommons.org/licenses/by/4.0/" />
      </cc:Work>
    </rdf:RDF>
  </metadata>
  <g
     id="g4"
     inkscape:label="hamer">
    <g
       inkscape:label="handle"
       inkscape:groupmode="layer"
       id="layer1"
       transform="matrix(0.72971531,0,0,1.0046464,0.58746466,-0.01169246)">
      <path
         style="fill:#9b491e;fill-opacity:1;stroke:none;stroke-width:0.113349;stroke-linecap:round;stroke-linejoin:round;paint-order:stroke fill markers"
         d="m 2.271222,1.9625525 -10e-8,3.3e-6 c 0,0 -0.00712,2.1382909 0.09266,2.1881844 0.099787,0.049893 0.4561688,0.1140426 0.5630832,0.049893 0.1069147,-0.064148 0.078404,-2.2238225 0.042765,-2.2452054 0,0 -0.1318622,-0.2779783 -0.1603728,-0.4276587 -0.028511,-0.1496803 0.085532,-0.76622068 0.035639,-0.76978454 -0.049893,-0.003562 -0.427658,-0.0712763 -0.4882429,-0.0178193 -0.060585,0.0534579 0.00356,0.65574234 0.00356,0.76265684 0,0.1069147 -0.089094,0.4597299 -0.089093,0.4597301 z"
         id="path1"
         inkscape:label="fill"
         sodipodi:nodetypes="ccccc" />
      <path
         style="fill:none;fill-opacity:1;stroke:#000815;stroke-width:0.113349;stroke-linecap:round;stroke-linejoin:round;stroke-opacity:0.221739;paint-order:stroke fill markers"
         d="M 2.4850511,0.78649574 C 2.5614771,1.9090156 2.3192358,3.0360558 2.4993058,4.1436126"
         id="path3"
         inkscape:label="shadow-large"
         sodipodi:nodetypes="cc" />
      <path
         style="fill:none;fill-opacity:1;stroke:#000815;stroke-width:0.0764427;stroke-linecap:round;stroke-linejoin:round;stroke-dasharray:none;stroke-opacity:0.221739;paint-order:stroke fill markers"
         d="M 2.6350471,0.77297149 C 2.6711532,1.9156516 2.5241085,3.057835 2.6442573,4.1704085"
         id="path3-1"
         inkscape:label="shadow-small"
         sodipodi:nodetypes="cc" />
      <path
         style="fill:none;fill-opacity:1;stroke:#d8d4cc;stroke-width:0.0764427;stroke-linecap:round;stroke-linejoin:round;stroke-dasharray:none;stroke-opacity:0.221739;paint-order:stroke fill markers"
         d="M 2.726676,0.79674193 C 2.7627822,1.9394221 2.9058232,3.0765888 2.798047,4.1891623"
         id="path3-1-2"
         inkscape:label="highlight"
         sodipodi:nodetypes="cc" />
      <path
         style="fill:none;fill-opacity:0.478261;stroke:#000000;stroke-width:0.113349;stroke-linecap:round;stroke-linejoin:round;paint-order:stroke fill markers"
         d="m 2.271222,1.9625525 -10e-8,3.3e-6 c 0,0 -0.00712,2.1382909 0.09266,2.1881844 0.099787,0.049893 0.4561688,0.1140426 0.5630832,0.049893 0.1069147,-0.064148 0.078404,-2.2238225 0.042765,-2.2452054 0,0 -0.1318622,-0.2779783 -0.1603728,-0.4276587 -0.028511,-0.1496803 0.085532,-0.76622068 0.035639,-0.76978454 -0.049893,-0.003562 -0.427658,-0.0712763 -0.4882429,-0.0178193 -0.060585,0.0534579 0.00356,0.65574234 0.00356,0.76265684 0,0.1069147 -0.089094,0.4597299 -0.089093,0.4597301 z"
         id="path1-8"
         inkscape:label="stroke"
         sodipodi:nodetypes="ccccc" />
    </g>
    <g
       inkscape:groupmode="layer"
       id="layer2"
       inkscape:label="head">
      <path
         style="fill:#f1b040;fill-opacity:1;stroke:none;stroke-width:0.179366;stroke-linecap:round;stroke-linejoin:round;stroke-dasharray:none;paint-order:stroke fill markers"
         d="m 1.5495442,2.0368784 c 0.8177496,-0.073316 1.7031747,0.1240723 1.8385263,0 C 3.5234227,1.9128061 3.6982515,1.2473271 3.5403415,1.1119755 3.3824316,0.97662345 1.526986,1.0048221 1.4762292,1.0555783 1.4254722,1.1063341 1.3521568,1.9804812 1.5495442,2.0368784 Z"
         id="path2"
         inkscape:label="fill" />
      <path
         style="fill:none;fill-opacity:0.478261;stroke:#000000;stroke-width:0.179372;stroke-linecap:round;stroke-linejoin:round;paint-order:stroke fill markers"
         d="m 1.5495442,2.0368784 c 0.8177496,-0.073316 1.7031747,0.1240723 1.8385263,0 C 3.5234227,1.9128061 3.6982515,1.2473271 3.5403415,1.1119755 3.3824316,0.97662345 1.526986,1.0048221 1.4762292,1.0555783 1.4254722,1.1063341 1.3521568,1.9804812 1.5495442,2.0368784 Z"
         id="path2-2"
         inkscape:label="stroke" />
      <path
         style="fill:#ffc45c;fill-opacity:1;stroke:none;stroke-width:0.244971;stroke-linecap:round;stroke-linejoin:round;stroke-dasharray:none;stroke-opacity:0.221739;paint-order:stroke fill markers"
         d="M 2.7373663,1.2879796 C 2.5264033,1.1633283 1.830795,1.1051578 1.6882523,1.2505844 1.5457098,1.3960106 1.8250935,1.5663672 2.0360565,1.5539022 2.2470196,1.5414368 2.7601732,1.4791113 2.7373663,1.2879796 Z"
         id="path4" />
    </g>
  </g>
</svg>
