<?xml version="1.0" encoding="UTF-8" standalone="no"?>
<!-- Created with Inkscape (http://www.inkscape.org/) -->

<svg
   width="5in"
   height="5in"
   viewBox="0 0 5 5"
   version="1.1"
   id="svg1"
   inkscape:version="1.4.3 (0d15f75, 2025-12-25)"
   sodipodi:docname="unlink - icon.svg"
   xmlns:inkscape="http://www.inkscape.org/namespaces/inkscape"
   xmlns:sodipodi="http://sodipodi.sourceforge.net/DTD/sodipodi-0.dtd"
   xmlns="http://www.w3.org/2000/svg"
   xmlns:svg="http://www.w3.org/2000/svg"
   xmlns:rdf="http://www.w3.org/1999/02/22-rdf-syntax-ns#"
   xmlns:cc="http://creativecommons.org/ns#">
  <sodipodi:namedview
     id="namedview1"
     pagecolor="#505050"
     bordercolor="#ffffff"
     borderopacity="1"
     inkscape:showpageshadow="0"
     inkscape:pageopacity="0"
     inkscape:pagecheckerboard="1"
     inkscape:deskcolor="#505050"
     inkscape:document-units="mm"
     inkscape:zoom="0.70710678"
     inkscape:cx="198.697"
     inkscape:cy="250.3158"
     inkscape:window-width="1920"
     inkscape:window-height="1009"
     inkscape:window-x="2552"
     inkscape:window-y="-8"
     inkscape:window-maximized="1"
     inkscape:current-layer="svg1"
     showguides="false" />
  <defs
     id="defs1">
    <inkscape:path-effect
       effect="powerclip"
       message=""
       id="path-effect10"
       is_visible="true"
       lpeversion="1"
       inverse="true"
       flatten="false"
       hide_clip="false" />
    <linearGradient
       id="swatch8"
       inkscape:swatch="solid">
      <stop
         style="stop-color:#727d88;stop-opacity:1;"
         offset="0"
         id="stop8" />
    </linearGradient>
    <filter
       id="mask-powermask-path-effect10_inverse"
       inkscape:label="filtermask-powermask-path-effect10"
       style="color-interpolation-filters:sRGB"
       height="100"
       width="100"
       x="-50"
       y="-50">
      <feColorMatrix
         id="mask-powermask-path-effect10_primitive1"
         values="1"
         type="saturate"
         result="fbSourceGraphic" />
      <feColorMatrix
         id="mask-powermask-path-effect10_primitive2"
         values="-1 0 0 0 1 0 -1 0 0 1 0 0 -1 0 1 0 0 0 1 0 "
         in="fbSourceGraphic" />
    </filter>
    <clipPath
       clipPathUnits="userSpaceOnUse"
       id="clipPath10">
      <path
         style="display:none;fill:#ffffff;fill-opacity:1;fill-rule:nonzero;stroke:none;stroke-width:0.152756;stroke-linecap:round;stroke-linejoin:round;stroke-dasharray:none;stroke-opacity:1;paint-order:stroke fill markers"
         d="M 2.5441718,2.8803297 C 1.7252936,2.9170702 1.9300131,1.8094889 2.517926,1.8672304 c 0.5879125,0.057741 0.6719001,1.0078501 0.026246,1.0130993 z"
         id="path10"
         sodipodi:nodetypes="csc"
         inkscape:label="inner circle mask" />
      <path
         id="lpe_path-effect10"
         style="fill:#ffffff;fill-opacity:1;fill-rule:nonzero;stroke:none;stroke-width:0.152756;stroke-linecap:round;stroke-linejoin:round;stroke-dasharray:none;stroke-opacity:1;paint-order:stroke fill markers"
         class="powerclip"
         d="M -4.1144701,-4.202546 H 9.0520833 V 9.0084954 H -4.1144701 Z M 2.5441718,2.8803297 C 3.1898261,2.8750805 3.1058385,1.9249714 2.517926,1.8672304 1.9300131,1.8094889 1.7252936,2.9170702 2.5441718,2.8803297 Z" />
    </clipPath>
  </defs>
  <metadata
     id="metadata3">
    <rdf:RDF>
      <cc:License
         rdf:about="http://creativecommons.org/licenses/by/4.0/">
        <cc:permits
           rdf:resource="http://creativecommons.org/ns#Reproduction" />
        <cc:permits
           rdf:resource="http://creativecommons.org/ns#Distribution" />
        <cc:requires
           rdf:resource="http://creativecommons.org/ns#Notice" />
        <cc:requires
           rdf:resource="http://creativecommons.org/ns#Attribution" />
        <cc:permits
           rdf:resource="http://creativecommons.org/ns#DerivativeWorks" />
      </cc:License>
      <cc:Work
         rdf:about="">
        <cc:license
           rdf:resource="http://creativecommons.org/licenses/by/4.0/" />
      </cc:Work>
    </rdf:RDF>
  </metadata>
  <g
     id="g4"
     inkscape:label="hamer"
     transform="translate(4.3645833,-0.17708333)">
    <g
       inkscape:label="handle"
       inkscape:groupmode="layer"
       id="layer1"
       transform="matrix(0.72971531,0,0,1.0046464,0.58746466,-0.01169246)">
      <path
         style="fill:#9b491e;fill-opacity:1;stroke:none;stroke-width:0.113349;stroke-linecap:round;stroke-linejoin:round;paint-order:stroke fill markers"
         d="m 2.271222,1.9625525 -10e-8,3.3e-6 c 0,0 -0.00712,2.1382909 0.09266,2.1881844 0.099787,0.049893 0.4561688,0.1140426 0.5630832,0.049893 0.1069147,-0.064148 0.078404,-2.2238225 0.042765,-2.2452054 0,0 -0.1318622,-0.2779783 -0.1603728,-0.4276587 -0.028511,-0.1496803 0.085532,-0.76622068 0.035639,-0.76978454 -0.049893,-0.003562 -0.427658,-0.0712763 -0.4882429,-0.0178193 -0.060585,0.0534579 0.00356,0.65574234 0.00356,0.76265684 0,0.1069147 -0.089094,0.4597299 -0.089093,0.4597301 z"
         id="path1"
         inkscape:label="fill"
         sodipodi:nodetypes="ccccc" />
      <path
         style="fill:none;fill-opacity:1;stroke:#000815;stroke-width:0.113349;stroke-linecap:round;stroke-linejoin:round;stroke-opacity:0.221739;paint-order:stroke fill markers"
         d="M 2.4850511,0.78649574 C 2.5614771,1.9090156 2.3192358,3.0360558 2.4993058,4.1436126"
         id="path3"
         inkscape:label="shadow-large"
         sodipodi:nodetypes="cc" />
      <path
         style="fill:none;fill-opacity:1;stroke:#000815;stroke-width:0.0764427;stroke-linecap:round;stroke-linejoin:round;stroke-dasharray:none;stroke-opacity:0.221739;paint-order:stroke fill markers"
         d="M 2.6350471,0.77297149 C 2.6711532,1.9156516 2.5241085,3.057835 2.6442573,4.1704085"
         id="path3-1"
         inkscape:label="shadow-small"
         sodipodi:nodetypes="cc" />
      <path
         style="fill:none;fill-opacity:1;stroke:#d8d4cc;stroke-width:0.0764427;stroke-linecap:round;stroke-linejoin:round;stroke-dasharray:none;stroke-opacity:0.221739;paint-order:stroke fill markers"
         d="M 2.726676,0.79674193 C 2.7627822,1.9394221 2.9058232,3.0765888 2.798047,4.1891623"
         id="path3-1-2"
         inkscape:label="highlight"
         sodipodi:nodetypes="cc" />
      <path
         style="fill:none;fill-opacity:0.478261;stroke:#000000;stroke-width:0.113349;stroke-linecap:round;stroke-linejoin:round;paint-order:stroke fill markers"
         d="m 2.271222,1.9625525 -10e-8,3.3e-6 c 0,0 -0.00712,2.1382909 0.09266,2.1881844 0.099787,0.049893 0.4561688,0.1140426 0.5630832,0.049893 0.1069147,-0.064148 0.078404,-2.2238225 0.042765,-2.2452054 0,0 -0.1318622,-0.2779783 -0.1603728,-0.4276587 -0.028511,-0.1496803 0.085532,-0.76622068 0.035639,-0.76978454 -0.049893,-0.003562 -0.427658,-0.0712763 -0.4882429,-0.0178193 -0.060585,0.0534579 0.00356,0.65574234 0.00356,0.76265684 0,0.1069147 -0.089094,0.4597299 -0.089093,0.4597301 z"
         id="path1-8"
         inkscape:label="stroke"
         sodipodi:nodetypes="ccccc" />
    </g>
    <g
       inkscape:groupmode="layer"
       id="layer2"
       inkscape:label="head">
      <path
         style="fill:#f1b040;fill-opacity:1;stroke:none;stroke-width:0.179366;stroke-linecap:round;stroke-linejoin:round;stroke-dasharray:none;paint-order:stroke fill markers"
         d="m 1.5495442,2.0368784 c 0.8177496,-0.073316 1.7031747,0.1240723 1.8385263,0 C 3.5234227,1.9128061 3.6982515,1.2473271 3.5403415,1.1119755 3.3824316,0.97662345 1.526986,1.0048221 1.4762292,1.0555783 1.4254722,1.1063341 1.3521568,1.9804812 1.5495442,2.0368784 Z"
         id="path2"
         inkscape:label="fill" />
      <path
         style="fill:none;fill-opacity:0.478261;stroke:#000000;stroke-width:0.179372;stroke-linecap:round;stroke-linejoin:round;paint-order:stroke fill markers"
         d="m 1.5495442,2.0368784 c 0.8177496,-0.073316 1.7031747,0.1240723 1.8385263,0 C 3.5234227,1.9128061 3.6982515,1.2473271 3.5403415,1.1119755 3.3824316,0.97662345 1.526986,1.0048221 1.4762292,1.0555783 1.4254722,1.1063341 1.3521568,1.9804812 1.5495442,2.0368784 Z"
         id="path2-2"
         inkscape:label="stroke" />
      <path
         style="fill:#ffc45c;fill-opacity:1;stroke:none;stroke-width:0.244971;stroke-linecap:round;stroke-linejoin:round;stroke-dasharray:none;stroke-opacity:0.221739;paint-order:stroke fill markers"
         d="M 2.7373663,1.2879796 C 2.5264033,1.1633283 1.830795,1.1051578 1.6882523,1.2505844 1.5457098,1.3960106 1.8250935,1.5663672 2.0360565,1.5539022 2.2470196,1.5414368 2.7601732,1.4791113 2.7373663,1.2879796 Z"
         id="path4" />
    </g>
  </g>
  <g
     inkscape:groupmode="layer"
     id="layer3"
     inkscape:label="cog"
     transform="translate(-6.1577215,-0.14731391)">
    <path
       style="fill:#727d88;fill-opacity:1;fill-rule:nonzero;stroke:none;stroke-width:0.153071;stroke-linecap:round;stroke-linejoin:round;stroke-dasharray:none;stroke-opacity:1;paint-order:stroke fill markers"
       d="M 2.9947926,0.92708363 C 2.9479176,0.80208359 2.2708341,0.76041691 2.2343757,0.8333336 c -0.036458,0.0729167 -0.00521,0.1770834 -0.00521,0.1770834 0,0 -0.2708334,0.036458 -0.4895835,0.1927084 L 1.625,1.0572917 c 0,0 -0.3697917,0.2760416 -0.421875,0.4427083 l 0.125,0.09375 c 0,0 -0.203125,0.34375 -0.21875,0.4895833 L 0.90625,2.0572917 c 0,0 -0.0677083,0.4114583 0.0416667,0.4947916 l 0.15625,-0.00521 c 0,0 0.083333,0.484375 0.2083333,0.5885417 L 1.109375,3.2708333 c 0,0 0.3020833,0.4114584 0.4947917,0.4114584 L 1.7552083,3.53125 c 0,0 0.3645834,0.2239583 0.5885417,0.2083333 l -0.020833,0.265625 c 0,0 0.4479166,0.03125 0.6875,-0.098958 L 2.9375,3.6822917 c 0,0 0.4010417,-0.21875 0.5,-0.4166667 L 3.734375,3.40625 c 0,0 0.21875,-0.3020833 0.2604167,-0.515625 l -0.28125,-0.125 c 0,0 0.1197916,-0.3697917 0.078125,-0.6145833 l 0.2604166,-0.067708 c 0,0 -0.067708,-0.3177083 -0.2239583,-0.5260416 L 3.5833333,1.6354167 3.4270833,1.4583333 3.546875,1.2291667 3.2916667,1.046875 3.0989583,1.2552083 2.90625,1.1458333 Z"
       id="path7-1"
       inkscape:label="fill"
       clip-path="url(#clipPath10)"
       inkscape:path-effect="#path-effect10"
       inkscape:original-d="M 2.9947926,0.92708363 C 2.9479176,0.80208359 2.2708341,0.76041691 2.2343757,0.8333336 c -0.036458,0.0729167 -0.00521,0.1770834 -0.00521,0.1770834 0,0 -0.2708334,0.036458 -0.4895835,0.1927084 L 1.625,1.0572917 c 0,0 -0.3697917,0.2760416 -0.421875,0.4427083 l 0.125,0.09375 c 0,0 -0.203125,0.34375 -0.21875,0.4895833 L 0.90625,2.0572917 c 0,0 -0.0677083,0.4114583 0.0416667,0.4947916 l 0.15625,-0.00521 c 0,0 0.083333,0.484375 0.2083333,0.5885417 L 1.109375,3.2708333 c 0,0 0.3020833,0.4114584 0.4947917,0.4114584 L 1.7552083,3.53125 c 0,0 0.3645834,0.2239583 0.5885417,0.2083333 l -0.020833,0.265625 c 0,0 0.4479166,0.03125 0.6875,-0.098958 L 2.9375,3.6822917 c 0,0 0.4010417,-0.21875 0.5,-0.4166667 L 3.734375,3.40625 c 0,0 0.21875,-0.3020833 0.2604167,-0.515625 l -0.28125,-0.125 c 0,0 0.1197916,-0.3697917 0.078125,-0.6145833 l 0.2604166,-0.067708 c 0,0 -0.067708,-0.3177083 -0.2239583,-0.5260416 L 3.5833333,1.6354167 3.4270833,1.4583333 3.546875,1.2291667 3.2916667,1.046875 3.0989583,1.2552083 2.90625,1.1458333 Z"
       transform="matrix(1.3220243,0,0,1.3220243,-0.67717199,-0.60714198)" />
    <path
       style="display:inline;fill:none;fill-opacity:1;fill-rule:nonzero;stroke:#000000;stroke-width:0.201947;stroke-linecap:round;stroke-linejoin:round;stroke-dasharray:none;stroke-opacity:1;paint-order:stroke fill markers"
       d="M 2.686285,3.200724 C 1.6037081,3.2492958 1.8743523,1.7850464 2.6515874,1.8613821 3.4288221,1.9377171 3.5398557,3.1937844 2.686285,3.200724 Z"
       id="path8-6"
       sodipodi:nodetypes="csc"
       inkscape:label="inner circle stroke" />
    <path
       style="fill:#526272;fill-opacity:1;fill-rule:nonzero;stroke:none;stroke-width:0.201947;stroke-linecap:round;stroke-linejoin:round;stroke-dasharray:none;stroke-opacity:1;paint-order:stroke fill markers"
       d="M 3.8948302,1.4516362 C 3.8931777,1.6730311 4.0889115,1.869615 4.0573359,2.0588684 4.0298001,2.2239089 3.7745887,2.3857068 3.7712351,2.5234646 3.7633715,2.8465015 3.856709,3.0918306 3.7275783,3.2648257 3.6274252,3.3989998 3.2567868,3.4093922 3.1376764,3.491265 2.9369036,3.6292702 2.9521277,3.8028228 2.7016768,3.7918769 2.5943517,3.7871862 2.26645,3.796579 2.0409065,3.6712206 1.8632409,3.572473 1.7804999,3.3365286 1.7040763,3.3110591 1.486953,3.2386989 1.471012,3.3242869 1.3077182,3.2366412 1.0605104,3.1039559 0.89961794,2.9871129 0.89961794,2.9871129 L 1.0097862,3.5517262 0.81699094,3.7307504 1.3953765,4.2609373 1.6294851,4.0819131 2.4075514,4.3366782 V 4.6671843 L 3.2682444,4.5983289 3.2062745,4.2609373 3.8741722,3.7169793 4.2597626,3.8615757 4.5902687,3.2281058 4.239106,3.0835094 4.3561603,2.2641297 4.6660097,2.153961 4.3837024,1.4860632 4.0807385,1.5136055 Z"
       id="path11"
       sodipodi:nodetypes="csssssssscccccccccccccccccc"
       inkscape:label="shadow" />
    <path
       style="fill:none;fill-opacity:1;stroke:#000000;stroke-width:0.202364;stroke-linecap:round;stroke-linejoin:round;stroke-dasharray:none;stroke-opacity:1;paint-order:stroke fill markers"
       d="M 3.2820167,0.61848515 C 3.2200468,0.45323206 2.3249259,0.39814769 2.276727,0.49454533 c -0.048198,0.0963977 -0.00689,0.23410857 -0.00689,0.23410857 0,0 -0.3580484,0.048198 -0.6472413,0.2547652 L 1.4711175,0.7906234 c 0,0 -0.48887356,0.3649337 -0.55772896,0.5852711 L 1.0786416,1.4998343 c 0,0 -0.26853616,0.4544459 -0.28919286,0.6472411 L 0.52091257,2.1126477 c 0,0 -0.089512,0.5439579 0.0550844,0.6541266 l 0.20656627,-0.00689 c 0,0 0.1101683,0.6403556 0.27542166,0.7780665 L 0.78944874,3.7169793 c 0,0 0.39936146,0.543958 0.65412666,0.543958 L 1.6432561,4.0612565 c 0,0 0.4819881,0.2960783 0.7780664,0.2754217 l -0.027542,0.3511627 c 0,0 0.5921567,0.041313 0.9088917,-0.1308249 L 3.2062745,4.2609373 c 0,0 0.5301869,-0.2891928 0.6610122,-0.5508435 l 0.3924759,0.1859097 c 0,0 0.2891929,-0.3993615 0.3442773,-0.6816688 L 4.2322205,3.0490816 c 0,0 0.1583674,-0.4888736 0.1032832,-0.8124941 l 0.344277,-0.089512 c 0,0 -0.089512,-0.4200181 -0.2960783,-0.6954398 L 4.0600818,1.5549187 3.8535155,1.3208102 4.0118831,1.0178463 3.6744915,0.7768523 3.4197263,1.052274 3.1649612,0.9076775 Z"
       id="path7"
       inkscape:label="outer stroke" />
    <path
       style="fill:#a5b4b9;fill-opacity:1;fill-rule:nonzero;stroke:none;stroke-width:0.201947;stroke-linecap:round;stroke-linejoin:round;stroke-dasharray:none;stroke-opacity:1;paint-order:stroke fill markers"
       d="M 2.896539,0.980092 C 2.976203,1.026258 2.925052,1.2106966 2.84785,1.272221 2.4622827,1.2995076 1.8768346,1.2478415 1.7767107,1.8370038 1.7864541,2.0025436 1.2229176,1.9454283 1.1827151,1.7493655 1.163132,1.6538585 1.5722205,1.1358946 2.1856913,0.9995679 2.7991621,0.863241 2.798556,0.9233096 2.896539,0.980092 Z"
       id="path12"
       inkscape:label="highlight"
       sodipodi:nodetypes="sscsss" />
  </g>
  <g
     inkscape:groupmode="layer"
     id="layer4"
     inkscape:label="-"
     transform="translate(-5.9735791,-0.09575404)">
    <path
       style="fill:#0ccb00;fill-opacity:1;fill-rule:nonzero;stroke:none;stroke-width:0.174076;stroke-linecap:round;stroke-linejoin:round;stroke-dasharray:none;stroke-opacity:1;paint-order:stroke fill markers"
       d="M 4.8635002,1.1436269 C 4.9839499,1.5335778 4.5720849,1.5097509 4.4596653,1.4975649 4.4187535,1.4931291 4.3165212,2.1625471 4.1608168,2.1487193 3.7873753,2.1155546 4.013809,1.7214267 3.8652025,1.5372849 3.729464,1.3690879 3.4453216,1.4418656 3.3916794,1.4122626 3.2150201,1.3147752 3.4077394,1.0344976 3.7449982,1.0466836 3.8344131,0.9060653 3.9075578,0.44172596 4.048663,0.43979232 4.2235446,0.43739632 4.264789,0.9118609 4.3307802,1.0190952 c 0.066203,0.1075784 0.4808528,0.085175 0.53272,0.1245317 z"
       id="path13"
       inkscape:label="fill"
       sodipodi:nodetypes="ccssccssc" />
    <path
       style="fill:none;fill-opacity:1;fill-rule:nonzero;stroke:#000000;stroke-width:0.176629;stroke-linecap:round;stroke-linejoin:round;stroke-dasharray:none;stroke-opacity:1;paint-order:stroke fill markers"
       d="M 4.8614508,1.1240191 C 5.0029123,1.2630129 4.9282869,1.4496179 4.4468657,1.4960369 4.4198594,1.4932295 4.4267067,2.1291737 4.1297169,2.1594085 3.7911461,2.1938766 3.9451585,1.4965389 3.8270125,1.4931961 3.5790957,1.4861817 3.435467,1.4616747 3.3402364,1.4112819 3.1571849,1.3144185 3.356878,1.0359375 3.7063394,1.0480454 c 0.099211,0.00344 0.067474,-0.316805 0.1467117,-0.48875446 0.058775,-0.12754283 0.3190659,-0.15152146 0.3652612,-0.0841183 0.064927,0.0947355 -0.011356,0.37776656 0.1284611,0.53578196 0.082082,0.092764 0.4029662,0.0033 0.5146774,0.1130645 z"
       id="path13-7"
       inkscape:label="stroke"
       sodipodi:nodetypes="scssccssss" />
  </g>
  <path
     style="fill:none;fill-opacity:1;fill-rule:nonzero;stroke:#646464;stroke-width:0.289962;stroke-linecap:round;stroke-linejoin:round;stroke-dasharray:none;stroke-opacity:1;paint-order:stroke fill markers"
     d="M 1.9199845,1.5870561 C -0.27900421,4.8815823 1.6259726,4.5070085 1.6431628,4.5035705 1.8802727,4.4561484 2.5675366,3.7437399 3.1481815,2.9551394 M 3.6154914,2.2635191 C 4.1441339,1.4709863 4.4796325,0.69629796 4.0763832,0.5164374 3.5730474,0.29193544 1.7030961,2.8660488 1.9606744,2.9880595 2.3363611,3.1660164 2.8702314,2.3157784 2.8702314,2.3157784"
     id="path14-3"
     sodipodi:nodetypes="csccssc"
     inkscape:label="link" />
  <path
     style="fill:none;fill-opacity:1;fill-rule:nonzero;stroke:#000000;stroke-width:0.289962;stroke-linecap:round;stroke-linejoin:round;stroke-dasharray:none;stroke-opacity:1;paint-order:stroke fill markers"
     d="M 1.8925838,1.357819 C -0.30640506,4.6523451 1.5985719,4.2777713 1.615762,4.2743333 1.8521463,4.2270564 2.5359331,3.5188571 3.1154463,2.7331407 M 3.4518156,2.1885395 C 4.027939,1.3541304 4.4563869,0.38948831 3.9974224,0.31666279 3.4407261,0.22832981 1.6167558,2.6780128 1.8817137,2.7882851 2.265505,2.9480145 2.7912707,2.116004 2.7912707,2.116004"
     id="path14"
     sodipodi:nodetypes="csccssc"
     inkscape:label="link" />
  <path
     style="fill:none;fill-opacity:1;fill-rule:nonzero;stroke:#e31111;stroke-width:0.262992;stroke-linecap:round;stroke-linejoin:round;stroke-dasharray:none;stroke-dashoffset:0.0458268;stroke-opacity:1;paint-order:stroke fill markers"
     d="m 1.3265659,1.310354 c 0,0 0.2611161,0.5927327 0.5303303,0.7218383 0.3102199,0.1487705 0.7103381,-0.1683644 1.0311976,-0.044194 0.3966827,0.1535131 0.9059809,0.8986152 0.9059809,0.8986152"
     id="path15"
     sodipodi:nodetypes="cssc" />
</svg>
