<?xml version="1.0" encoding="UTF-8" standalone="no"?>
<!-- Created with Inkscape (http://www.inkscape.org/) -->

<svg
   width="5in"
   height="5in"
   viewBox="0 0 5 5"
   version="1.1"
   id="svg1"
   inkscape:version="1.4.3 (0d15f75, 2025-12-25)"
   sodipodi:docname="send icon.svg"
   xmlns:inkscape="http://www.inkscape.org/namespaces/inkscape"
   xmlns:sodipodi="http://sodipodi.sourceforge.net/DTD/sodipodi-0.dtd"
   xmlns="http://www.w3.org/2000/svg"
   xmlns:svg="http://www.w3.org/2000/svg"
   xmlns:rdf="http://www.w3.org/1999/02/22-rdf-syntax-ns#"
   xmlns:cc="http://creativecommons.org/ns#">
  <sodipodi:namedview
     id="namedview1"
     pagecolor="#505050"
     bordercolor="#ffffff"
     borderopacity="1"
     inkscape:showpageshadow="0"
     inkscape:pageopacity="0"
     inkscape:pagecheckerboard="1"
     inkscape:deskcolor="#505050"
     inkscape:document-units="mm"
     inkscape:zoom="2.4218407"
     inkscape:cx="235.97753"
     inkscape:cy="248.98417"
     inkscape:window-width="1920"
     inkscape:window-height="1009"
     inkscape:window-x="2552"
     inkscape:window-y="-8"
     inkscape:window-maximized="1"
     inkscape:current-layer="layer1" />
  <defs
     id="defs1" />
  <g
     inkscape:label="Layer 1"
     inkscape:groupmode="layer"
     id="layer1">
    <path
       style="fill:#000000;fill-opacity:1;stroke:none;stroke-width:0.0205193;stroke-linecap:round;stroke-linejoin:round;stroke-dasharray:none;stroke-dashoffset:696.375;stroke-opacity:1;paint-order:stroke fill markers"
       d="M 3.7317531,1.1374699 C 3.9993931,1.3442827 3.2238454,3.3880789 2.9562054,3.4549889 2.7685158,3.5019113 2.6111319,3.3256447 2.3696396,3.1729046 2.3191352,3.1409614 2.2529206,3.1782665 2.2401991,3.1670148 2.1643712,3.0999477 2.0996306,2.9560144 2.0455462,2.9064998 c -0.04987,-0.045656 -0.0413,0.00182 -0.084794,-0.049948 -0.04375,-0.052071 0.017275,-0.052608 -0.03709,-0.093477 C 1.8909182,2.7384592 1.7189499,2.7231621 1.7446283,2.6568884 1.7583695,2.6214236 1.731042,2.5645757 1.7067713,2.5384336 1.5390519,2.3577821 1.431627,2.219862 1.4872267,2.0437961 1.5602194,1.8126525 3.4458649,0.91240906 3.7317531,1.1374699 Z"
       id="path1-8"
       sodipodi:nodetypes="csssssssssc" />
    <path
       style="fill:#ffffff;fill-opacity:1;stroke:none;stroke-width:0.53504;stroke-linecap:round;stroke-linejoin:round;stroke-dashoffset:696.375;paint-order:stroke fill markers"
       d="M 3.6699717,1.1714467 C 3.9376117,1.3782595 3.2116799,3.3394171 2.9440399,3.4063271 2.6763999,3.4732372 2.1208161,2.8419828 2.1208161,2.8419828 L 3.4793199,1.3686136 1.9708035,2.7311444 c 0,0 -0.5170318,-0.4440391 -0.4440391,-0.6751827 0.072993,-0.2311436 1.917535,-1.0493599 2.1432073,-0.884515 z"
       id="path1"
       sodipodi:nodetypes="cscccsc" />
    <path
       style="fill:#000000;fill-opacity:1;stroke:none;stroke-width:0.0191862;stroke-linecap:round;stroke-linejoin:round;stroke-dasharray:none;stroke-dashoffset:696.375;stroke-opacity:1;paint-order:stroke fill markers"
       d="m 1.774678,2.6034333 c 0,0 0.4455064,0.4583348 0.5231963,0.5258563 0.094352,0.082003 -0.6987214,0.1334349 -0.7238819,0.00487 C 1.5488324,3.0055887 1.774678,2.6034334 1.774678,2.6034333 Z"
       id="path2-2"
       sodipodi:nodetypes="cssc" />
    <path
       style="fill:#ffffff;fill-opacity:1;stroke:none;stroke-width:0.50028;stroke-linecap:round;stroke-linejoin:round;stroke-dashoffset:696.375;paint-order:stroke fill markers"
       d="m 1.7899296,2.6928663 c 0.03672,-0.017486 0.3979739,0.3661923 0.4025669,0.4071165 0.00727,0.064759 -0.5157889,0.1079971 -0.5409494,-0.020571 -0.02516,-0.128568 0.1144316,-0.3751403 0.1383825,-0.3865455 z"
       id="path2"
       sodipodi:nodetypes="ssss" />
  </g>
  <metadata
     id="metadata3">
    <rdf:RDF>
      <cc:License
         rdf:about="http://creativecommons.org/licenses/by/4.0/">
        <cc:permits
           rdf:resource="http://creativecommons.org/ns#Reproduction" />
        <cc:permits
           rdf:resource="http://creativecommons.org/ns#Distribution" />
        <cc:requires
           rdf:resource="http://creativecommons.org/ns#Notice" />
        <cc:requires
           rdf:resource="http://creativecommons.org/ns#Attribution" />
        <cc:permits
           rdf:resource="http://creativecommons.org/ns#DerivativeWorks" />
      </cc:License>
      <cc:Work
         rdf:about="">
        <cc:license
           rdf:resource="http://creativecommons.org/licenses/by/4.0/" />
      </cc:Work>
    </rdf:RDF>
  </metadata>
</svg>
