<?xml version="1.0" encoding="UTF-8" standalone="no"?>
<!-- Created with Inkscape (http://www.inkscape.org/) -->

<svg
   width="25in"
   height="5in"
   viewBox="0 0 25 5"
   version="1.1"
   id="svg1"
   inkscape:version="1.4.3 (0d15f75, 2025-12-25)"
   xml:space="preserve"
   sodipodi:docname="load - all.svg"
   xmlns:inkscape="http://www.inkscape.org/namespaces/inkscape"
   xmlns:sodipodi="http://sodipodi.sourceforge.net/DTD/sodipodi-0.dtd"
   xmlns="http://www.w3.org/2000/svg"
   xmlns:svg="http://www.w3.org/2000/svg"
   xmlns:rdf="http://www.w3.org/1999/02/22-rdf-syntax-ns#"
   xmlns:cc="http://creativecommons.org/ns#"><sodipodi:namedview
     id="namedview1"
     pagecolor="#505050"
     bordercolor="#ffffff"
     borderopacity="1"
     inkscape:showpageshadow="0"
     inkscape:pageopacity="0"
     inkscape:pagecheckerboard="1"
     inkscape:deskcolor="#505050"
     inkscape:document-units="mm"
     inkscape:zoom="0.428125"
     inkscape:cx="1811.3869"
     inkscape:cy="471.82482"
     inkscape:window-width="1920"
     inkscape:window-height="1009"
     inkscape:window-x="2552"
     inkscape:window-y="-8"
     inkscape:window-maximized="1"
     inkscape:current-layer="svg1" /><defs
     id="defs1"><inkscape:path-effect
       effect="fillet_chamfer"
       id="path-effect9"
       is_visible="true"
       lpeversion="1"
       nodesatellites_param="F,0,0,1,0,0,0,1 @ F,0,0,1,0,0,0,1 @ F,0,0,1,0,0,0,1 @ F,0,0,1,0,0,0,1 @ F,0,0,1,0,0,0,1"
       radius="0"
       unit="px"
       method="auto"
       mode="F"
       chamfer_steps="1"
       flexible="false"
       use_knot_distance="true"
       apply_no_radius="true"
       apply_with_radius="true"
       only_selected="false"
       hide_knots="false" /><inkscape:path-effect
       effect="fillet_chamfer"
       id="path-effect9-2"
       is_visible="true"
       lpeversion="1"
       nodesatellites_param="F,0,0,1,0,0,0,1 @ F,0,0,1,0,0,0,1 @ F,0,0,1,0,0,0,1 @ F,0,0,1,0,0,0,1 @ F,0,0,1,0,0,0,1"
       radius="0"
       unit="px"
       method="auto"
       mode="F"
       chamfer_steps="1"
       flexible="false"
       use_knot_distance="true"
       apply_no_radius="true"
       apply_with_radius="true"
       only_selected="false"
       hide_knots="false" /></defs><metadata
     id="metadata3"><rdf:RDF><cc:Work
         rdf:about=""><cc:license
           rdf:resource="http://creativecommons.org/licenses/by/4.0/" /></cc:Work><cc:License
         rdf:about="http://creativecommons.org/licenses/by/4.0/"><cc:permits
           rdf:resource="http://creativecommons.org/ns#Reproduction" /><cc:permits
           rdf:resource="http://creativecommons.org/ns#Distribution" /><cc:requires
           rdf:resource="http://creativecommons.org/ns#Notice" /><cc:requires
           rdf:resource="http://creativecommons.org/ns#Attribution" /><cc:permits
           rdf:resource="http://creativecommons.org/ns#DerivativeWorks" /></cc:License></rdf:RDF></metadata><g
     id="g11"
     inkscape:label="load-frame-5"
     style="fill:#ffffff;fill-opacity:1;stroke:#000000;stroke-width:0.0967323;stroke-linecap:round;stroke-linejoin:round;stroke-dasharray:none;stroke-opacity:1;paint-order:stroke fill markers"
     transform="translate(19.931624,-0.01386359)"><path
       style="fill:#ffffff;fill-opacity:1;stroke:#000000;stroke-width:0.0967323;stroke-linecap:round;stroke-linejoin:round;stroke-dasharray:none;stroke-opacity:1;paint-order:stroke fill markers"
       d="M 2.0892275,2.6471647 C 2.3447021,3.1337828 2.8209998,2.7906831 2.7966688,2.5838703 2.772338,2.3770576 2.5647231,2.0884329 2.2492235,2.1824104 1.9982292,2.2571738 2.0892275,2.6471647 2.0892275,2.6471647 Z"
       id="path9"
       sodipodi:nodetypes="cssc"
       inkscape:label="center" /><path
       style="fill:#ffffff;fill-opacity:1;stroke:#000000;stroke-width:0.0967323;stroke-linecap:round;stroke-linejoin:round;stroke-dasharray:none;stroke-opacity:1;paint-order:stroke fill markers"
       d="M 1.2148466,2.1313678 C 0.72822849,2.3868424 1.0756293,2.8889469 1.2824421,2.8646159 1.4892548,2.8402851 1.7778795,2.6326702 1.683902,2.3171706 1.6091386,2.0661763 1.2148466,2.1313678 1.2148466,2.1313678 Z"
       id="path10"
       sodipodi:nodetypes="cssc"
       inkscape:label="left" /><path
       style="fill:#ffffff;fill-opacity:1;stroke:#000000;stroke-width:0.0967323;stroke-linecap:round;stroke-linejoin:round;stroke-dasharray:none;stroke-opacity:1;paint-order:stroke fill markers"
       d="M 3.8679508,2.3965587 C 3.6124762,1.9099406 3.1103717,2.2573414 3.1347027,2.4641542 3.1590335,2.6709669 3.3666484,2.9595916 3.682148,2.8656141 3.9331423,2.7908507 3.8679508,2.3965587 3.8679508,2.3965587 Z"
       id="path11"
       sodipodi:nodetypes="cssc"
       inkscape:label="right" /></g><g
     id="g8"
     inkscape:label="load-frame-4"
     style="fill:#ffffff;fill-opacity:1;stroke:#000000;stroke-width:0.0967323;stroke-linecap:round;stroke-linejoin:round;stroke-dasharray:none;stroke-opacity:1;paint-order:stroke fill markers"
     transform="translate(15.381746,-0.01386359)"><path
       style="fill:#ffffff;fill-opacity:1;stroke:#000000;stroke-width:0.0967323;stroke-linecap:round;stroke-linejoin:round;stroke-dasharray:none;stroke-opacity:1;paint-order:stroke fill markers"
       d="M 2.0892275,2.6471647 C 2.3447021,3.1337828 2.8209998,2.7906831 2.7966688,2.5838703 2.772338,2.3770576 2.5647231,2.0884329 2.2492235,2.1824104 1.9982292,2.2571738 2.0892275,2.6471647 2.0892275,2.6471647 Z"
       id="path6"
       sodipodi:nodetypes="cssc"
       inkscape:label="center" /><path
       style="fill:#ffffff;fill-opacity:1;stroke:#000000;stroke-width:0.0967323;stroke-linecap:round;stroke-linejoin:round;stroke-dasharray:none;stroke-opacity:1;paint-order:stroke fill markers"
       d="M 1.2148466,2.1313678 C 0.72822849,2.3868424 1.0756293,2.8889469 1.2824421,2.8646159 1.4892548,2.8402851 1.7778795,2.6326702 1.683902,2.3171706 1.6091386,2.0661763 1.2148466,2.1313678 1.2148466,2.1313678 Z"
       id="path7"
       sodipodi:nodetypes="cssc"
       inkscape:label="left" /><path
       style="fill:#ffffff;fill-opacity:1;stroke:#000000;stroke-width:0.0967323;stroke-linecap:round;stroke-linejoin:round;stroke-dasharray:none;stroke-opacity:1;paint-order:stroke fill markers"
       d="M 3.8679508,2.3965587 C 3.6124762,1.9099406 3.1103717,2.2573414 3.1347027,2.4641542 3.1590335,2.6709669 3.3666484,2.9595916 3.682148,2.8656141 3.9331423,2.7908507 3.8679508,2.3965587 3.8679508,2.3965587 Z"
       id="path8"
       sodipodi:nodetypes="cssc"
       inkscape:label="right" /></g><g
     id="g5"
     inkscape:label="load-frame-3"
     style="fill:#ffffff;fill-opacity:1;stroke:#000000;stroke-width:0.0967323;stroke-linecap:round;stroke-linejoin:round;stroke-dasharray:none;stroke-opacity:1;paint-order:stroke fill markers"
     transform="translate(10.915693,-0.02050694)"><path
       style="fill:#ffffff;fill-opacity:1;stroke:#000000;stroke-width:0.0967323;stroke-linecap:round;stroke-linejoin:round;stroke-dasharray:none;stroke-opacity:1;paint-order:stroke fill markers"
       d="M 2.0892275,2.6471647 C 2.3447021,3.1337828 2.8209998,2.7906831 2.7966688,2.5838703 2.772338,2.3770576 2.5883793,2.1013363 2.2728797,2.1953138 2.0218854,2.2700772 2.0892275,2.6471647 2.0892275,2.6471647 Z"
       id="path3"
       sodipodi:nodetypes="cssc"
       inkscape:label="center" /><path
       style="fill:#ffffff;fill-opacity:1;stroke:#000000;stroke-width:0.0967323;stroke-linecap:round;stroke-linejoin:round;stroke-dasharray:none;stroke-opacity:1;paint-order:stroke fill markers"
       d="M 1.2169972,2.1507229 C 0.73037906,2.4061975 1.0756293,2.8889469 1.2824421,2.8646159 1.4892548,2.8402851 1.7778795,2.6326702 1.683902,2.3171706 1.6091386,2.0661763 1.2169972,2.1507229 1.2169972,2.1507229 Z"
       id="path4"
       sodipodi:nodetypes="cssc"
       inkscape:label="left" /><path
       style="fill:#ffffff;fill-opacity:1;stroke:#000000;stroke-width:0.0967323;stroke-linecap:round;stroke-linejoin:round;stroke-dasharray:none;stroke-opacity:1;paint-order:stroke fill markers"
       d="M 3.8679508,2.3965587 C 3.6124762,1.9099406 3.1103717,2.2573414 3.1347027,2.4641542 3.1590335,2.6709669 3.3472933,2.9445376 3.6627929,2.8505601 3.9137872,2.7757967 3.8679508,2.3965587 3.8679508,2.3965587 Z"
       id="path5"
       sodipodi:nodetypes="cssc"
       inkscape:label="right" /></g><g
     id="layer2-1"
     inkscape:label="load-frame-2"
     style="fill:#ffffff;fill-opacity:1;stroke:#000000;stroke-width:0.0967323;stroke-linecap:round;stroke-linejoin:round;stroke-dasharray:none;stroke-opacity:1;paint-order:stroke fill markers"
     transform="translate(5.9035275,-0.02050694)"><path
       style="fill:#ffffff;fill-opacity:1;stroke:#000000;stroke-width:0.0967323;stroke-linecap:round;stroke-linejoin:round;stroke-dasharray:none;stroke-opacity:1;paint-order:stroke fill markers"
       d="M 2.0892275,2.6471647 C 2.3447021,3.1337828 2.8209998,2.7906831 2.7966688,2.5838703 2.772338,2.3770576 2.5883793,2.1013363 2.2728797,2.1953138 2.0218854,2.2700772 2.0892275,2.6471647 2.0892275,2.6471647 Z"
       id="path3-13"
       sodipodi:nodetypes="cssc"
       inkscape:label="center" /><path
       style="fill:#ffffff;fill-opacity:1;stroke:#000000;stroke-width:0.0967323;stroke-linecap:round;stroke-linejoin:round;stroke-dasharray:none;stroke-opacity:1;paint-order:stroke fill markers"
       d="M 1.2169972,2.1507229 C 0.73037906,2.4061975 1.0756293,2.8889469 1.2824421,2.8646159 1.4892548,2.8402851 1.7778795,2.6326702 1.683902,2.3171706 1.6091386,2.0661763 1.2169972,2.1507229 1.2169972,2.1507229 Z"
       id="path3-1-8"
       sodipodi:nodetypes="cssc"
       inkscape:label="left" /><path
       style="fill:#ffffff;fill-opacity:1;stroke:#000000;stroke-width:0.0967323;stroke-linecap:round;stroke-linejoin:round;stroke-dasharray:none;stroke-opacity:1;paint-order:stroke fill markers"
       d="M 3.8679508,2.3965587 C 3.6124762,1.9099406 3.1103717,2.2573414 3.1347027,2.4641542 3.1590335,2.6709669 3.3472933,2.9445376 3.6627929,2.8505601 3.9137872,2.7757967 3.8679508,2.3965587 3.8679508,2.3965587 Z"
       id="path3-2-7"
       sodipodi:nodetypes="cssc"
       inkscape:label="right" /></g><g
     id="layer2-5"
     inkscape:label="load-frame-1"
     style="fill:#ffffff;fill-opacity:1;stroke:#000000;stroke-width:0.0967323;stroke-linecap:round;stroke-linejoin:round;stroke-dasharray:none;stroke-opacity:1;paint-order:stroke fill markers"
     transform="translate(0.92919107,-0.01386359)"><path
       style="fill:#ffffff;fill-opacity:1;stroke:#000000;stroke-width:0.0967323;stroke-linecap:round;stroke-linejoin:round;stroke-dasharray:none;stroke-opacity:1;paint-order:stroke fill markers"
       d="M 2.0892275,2.6471647 C 2.3447021,3.1337828 2.8209998,2.7906831 2.7966688,2.5838703 2.772338,2.3770576 2.5647231,2.0884329 2.2492235,2.1824104 1.9982292,2.2571738 2.0892275,2.6471647 2.0892275,2.6471647 Z"
       id="path3-7"
       sodipodi:nodetypes="cssc"
       inkscape:label="center" /><path
       style="fill:#ffffff;fill-opacity:1;stroke:#000000;stroke-width:0.0967323;stroke-linecap:round;stroke-linejoin:round;stroke-dasharray:none;stroke-opacity:1;paint-order:stroke fill markers"
       d="M 1.2148466,2.1313678 C 0.72822849,2.3868424 1.0756293,2.8889469 1.2824421,2.8646159 1.4892548,2.8402851 1.7778795,2.6326702 1.683902,2.3171706 1.6091386,2.0661763 1.2148466,2.1313678 1.2148466,2.1313678 Z"
       id="path3-1-6"
       sodipodi:nodetypes="cssc"
       inkscape:label="left" /><path
       style="fill:#ffffff;fill-opacity:1;stroke:#000000;stroke-width:0.0967323;stroke-linecap:round;stroke-linejoin:round;stroke-dasharray:none;stroke-opacity:1;paint-order:stroke fill markers"
       d="M 3.8679508,2.3965587 C 3.6124762,1.9099406 3.1103717,2.2573414 3.1347027,2.4641542 3.1590335,2.6709669 3.3666484,2.9595916 3.682148,2.8656141 3.9331423,2.7908507 3.8679508,2.3965587 3.8679508,2.3965587 Z"
       id="path3-2-1"
       sodipodi:nodetypes="cssc"
       inkscape:label="right" /></g></svg>
